<svg id="Layer_1" xmlns="http://www.w3.org/2000/svg" width="585.7" height="670"><style>.st0{fill:#4a4a4a}.st1{fill:#0a0b09}.st2{fill:#4db4da}.st3{fill:#fffffe}.st4{fill:#5eb453}.st5{fill:#d8d8d8;stroke:#d8d8d8;stroke-linecap:square}.st6{fill:#939393}.st7,.st8{fill:#fff}.st8{stroke:#fff;stroke-linecap:square}</style><g id="Welcome"><g id="Artboard" transform="translate(-481 -252)"><g id="FIC_FullLockup-01-Copy" transform="translate(481 252)"><path id="Fill-1" class="st0" d="M98.7 235.2c0-2.7-1.2-4-4.7-5.6-2.7-1.3-3.4-1.9-3.4-3.3 0-1.3.9-2.5 3-2.5 1.4 0 2.8.6 3.8 1.3l.4-2.5c-1-.6-2.3-1-4.1-1-3.2 0-5.5 1.9-5.5 4.8 0 2.6 1.3 3.8 4.7 5.3 2.7 1.2 3.4 1.9 3.4 3.6 0 1.8-1.3 2.8-3.2 2.8-1.8 0-3.5-.7-4.7-1.6L88 239c1.3.7 3.1 1.2 5 1.2 3.4.1 5.7-1.9 5.7-5zm14.1-1.8c0-4.2-2.2-6.2-4.9-6.2-1.8 0-3.1 1-4 2.1l-.3-1.8h-1.8V245l2.3-.3v-5c.8.3 1.9.6 3.1.6 3-.1 5.6-2.3 5.6-6.9zm-2.4.1c0 3.1-1.4 4.7-3.4 4.7-1.3 0-2.1-.2-3-.7v-6.1c1-1.3 2.1-2.2 3.5-2.2 1.7.1 2.9 1.6 2.9 4.3zm16.1.3c0-4.1-2.4-6.6-5.8-6.6-3.3 0-5.7 2.4-5.7 6.6 0 4.1 2.4 6.6 5.7 6.6 3.3-.1 5.8-2.5 5.8-6.6zm-2.4 0c0 2.6-1.1 4.6-3.4 4.6-2.2 0-3.4-2-3.4-4.6s1.1-4.6 3.4-4.6c2.2 0 3.4 2 3.4 4.6zm15.4 6.3v-9.2c0-2.3-1.2-3.7-3.6-3.7-1.8 0-3.2 1-4.4 2.1l-.3-1.8h-1.8v12.6h2.3v-8.7c1.1-1.2 2.4-2 3.6-2 1.4 0 1.9.9 1.9 2.2v8.6h2.3v-.1zm12.3-3.5c0-2.4-1.4-3.3-4.4-4.1-1.9-.5-2.6-1-2.6-1.8 0-.9.7-1.5 2.1-1.5 1.3 0 2.7.4 3.8 1.1l.4-2.2c-1.2-.5-2.5-.8-4.1-.8-2.7 0-4.4 1.5-4.4 3.5 0 2.2 1.2 3.1 4.1 3.9 2.2.6 2.9 1 2.9 2.1s-.9 1.7-2.5 1.7c-1.7 0-3.2-.6-4.4-1.5l-.3 2.2c1.1.6 2.9 1.2 4.5 1.2 3.2-.1 4.9-1.5 4.9-3.8zm13.5-2.8c0-4.1-2.4-6.6-5.8-6.6-3.3 0-5.7 2.4-5.7 6.6 0 4.1 2.4 6.6 5.7 6.6 3.4-.1 5.8-2.5 5.8-6.6zm-2.3 0c0 2.6-1.1 4.6-3.4 4.6-2.2 0-3.4-2-3.4-4.6s1.1-4.6 3.4-4.6c2.2 0 3.4 2 3.4 4.6zm12.2-4.3l-.4-2.2c-2 .1-3.5 1.4-4.3 2.8l-.4-2.6h-1.8v12.6h2.3v-7.5c.8-1.6 2.6-3 4.6-3.1zm11.9 4c0-3.5-1.7-6.3-5.3-6.3-3.1 0-5.5 2.5-5.5 6.5 0 4.6 2.5 6.6 5.7 6.6 2.1 0 3.6-.6 5-1.7l-.3-2.1c-1.4 1.1-2.6 1.8-4.4 1.8-2.2 0-3.5-1.4-3.6-4.3h8.4v-.5zm-2.3-1.2h-6c.4-2.2 1.6-3.2 3-3.2 1.8 0 2.7 1.1 3 3.2zm15.6 7.8V221l-2.3.4v6.5c-.8-.3-1.9-.6-3.1-.6-3 0-5.6 2.2-5.6 6.8 0 4.2 2.2 6.2 4.9 6.2 1.8 0 3.1-1 4-2.1l.3 1.8h1.8v.1zm-2.3-4.1c-1 1.3-2.1 2.2-3.5 2.2-1.7 0-2.9-1.5-2.9-4.2 0-3.1 1.4-4.7 3.4-4.7 1.3 0 2.1.2 3 .7v6zm22.6-2.6c0-4.2-2.2-6.2-4.9-6.2-1.7 0-2.9.9-3.7 1.7v-8l-2.3.4v18.1c1.6.5 3 .8 4.8.8 3.6 0 6.1-2.2 6.1-6.8zm-2.4.1c0 3.3-1.4 4.7-3.8 4.7-1.1 0-1.7-.1-2.5-.4v-6.4c.9-1.2 2.1-2.1 3.4-2.1 1.7 0 2.9 1.5 2.9 4.2zm15.2-6h-2.4l-3.3 9.9-3.4-10-2.3.4 4.5 12.5-.5 1.3c-.4 1-1 1.5-2 1.5-.4 0-.9-.1-1.3-.2l.3 2.1c.2.1.5.1.8.1 2.1 0 3.4-.8 4.4-3.7l5.2-13.9zm28 12.6l-1.4-18.2h-3l-5.6 15-5.6-15h-3l-1.4 18.2h2.3l1.1-14.5 5.7 14.6h1.8l5.7-14.6 1.1 14.5h2.3zm13.6-6.6c0-3.5-1.7-6.3-5.3-6.3-3.1 0-5.5 2.5-5.5 6.5 0 4.6 2.5 6.6 5.7 6.6 2.1 0 3.6-.6 5-1.7l-.3-2.1c-1.4 1.1-2.6 1.8-4.4 1.8-2.2 0-3.5-1.4-3.6-4.3h8.4v-.5zm-2.4-1.2h-6c.4-2.2 1.6-3.2 3-3.2 1.8 0 2.7 1.1 3 3.2zm11.2 7.8l-.3-2c-.3.1-.6.1-1.1.1-1.3 0-1.7-.6-1.7-1.7v-7.1h3l-.3-2h-2.7v-4.5l-2.3.3v4.2h-1.9v2h1.9v7.5c0 2.5 1.4 3.3 3.6 3.3.9.1 1.4 0 1.8-.1zm12.4 0l-.3-2.3h-6.5v-16h-2.4V240h9.2v.1zm5.4-16.6c0-.8-.6-1.5-1.5-1.5-.8 0-1.5.7-1.5 1.5s.7 1.5 1.5 1.5c.9-.1 1.5-.7 1.5-1.5zm-2.6 16.6h2.3v-12.6h-2.3v12.6zm12-16.7l-.3-2.1c-.2 0-.5-.1-1-.1-2.2 0-3.8 1-3.8 3.5v2.8h-2v2h1.9v10.6h2.3v-10.6h2.8l-.3-2h-2.5V225c0-1.2.6-1.6 1.7-1.6.5-.1.9 0 1.2 0zm12 10.1c0-3.5-1.7-6.3-5.3-6.3-3.1 0-5.5 2.5-5.5 6.5 0 4.6 2.5 6.6 5.7 6.6 2.1 0 3.6-.6 5-1.7l-.3-2.1c-1.4 1.1-2.6 1.8-4.4 1.8-2.2 0-3.5-1.4-3.6-4.3h8.4v-.5zm-2.4-1.2h-6c.4-2.2 1.6-3.2 3-3.2 1.9 0 2.8 1.1 3 3.2zm20.7-8.2v-2.3h-9.3V240h2.4v-8h5.8l-.4-2.3h-5.4v-5.6h6.9zm12.5 9.7c0-4.1-2.4-6.6-5.8-6.6-3.3 0-5.7 2.4-5.7 6.6 0 4.1 2.4 6.6 5.7 6.6 3.3-.1 5.8-2.5 5.8-6.6zm-2.4 0c0 2.6-1.1 4.6-3.4 4.6-2.2 0-3.4-2-3.4-4.6s1.1-4.6 3.4-4.6c2.2 0 3.4 2 3.4 4.6zm15.4 6.3v-12.6h-2.3v8.7c-1.1 1.2-2.4 2-3.6 2-1.4 0-1.9-.9-1.9-2.2v-8.6h-2.3v9.2c0 2.3 1.2 3.7 3.6 3.7 1.7 0 3.2-1 4.4-2.1l.3 1.8h1.8v.1zm13.7 0v-9.2c0-2.3-1.2-3.7-3.6-3.7-1.8 0-3.2 1-4.4 2.1l-.3-1.8h-1.8v12.6h2.3v-8.7c1.1-1.2 2.4-2 3.6-2 1.4 0 1.9.9 1.9 2.2v8.6h2.3v-.1zm13.9 0V221l-2.3.4v6.5c-.8-.3-1.9-.6-3.1-.6-3 0-5.6 2.2-5.6 6.8 0 4.2 2.2 6.2 4.9 6.2 1.8 0 3.1-1 4-2.1l.3 1.8h1.8v.1zm-2.3-4.1c-1 1.3-2.1 2.2-3.5 2.2-1.7 0-2.9-1.5-2.9-4.2 0-3.1 1.4-4.7 3.4-4.7 1.3 0 2.1.2 3 .7v6zm15.3 4.1v-8.8c0-2.8-1.5-4-4.5-4-1.9 0-3.3.4-4.8 1.1l.3 2c1.4-.6 2.8-1.1 4.3-1.1 1.4 0 2.4.6 2.4 2.1v.5c-5.2.6-7.8 1.8-7.8 4.9 0 2.1 1.4 3.5 3.6 3.5 2 0 3.4-.9 4.4-2l.3 1.7h1.8v.1zm-2.3-3.5c-1 1.1-2.3 1.8-3.7 1.8-1.2 0-1.8-.7-1.8-1.7 0-1.3 1-2.6 5.5-3v2.9zm11.9 3.5l-.3-2c-.3.1-.6.1-1.1.1-1.3 0-1.7-.6-1.7-1.7v-7.1h3l-.3-2H414v-4.5l-2.3.3v4.2h-1.9v2h1.9v7.5c0 2.5 1.4 3.3 3.6 3.3.8.1 1.4 0 1.8-.1zm5.6-16.6c0-.8-.6-1.5-1.5-1.5-.8 0-1.5.7-1.5 1.5s.7 1.5 1.5 1.5c.8-.1 1.5-.7 1.5-1.5zm-2.6 16.6h2.3v-12.6h-2.3v12.6zm16.9-6.3c0-4.1-2.4-6.6-5.8-6.6-3.3 0-5.7 2.4-5.7 6.6 0 4.1 2.4 6.6 5.7 6.6 3.3-.1 5.8-2.5 5.8-6.6zm-2.4 0c0 2.6-1.1 4.6-3.4 4.6-2.2 0-3.4-2-3.4-4.6s1.1-4.6 3.4-4.6c2.2 0 3.4 2 3.4 4.6zm15.4 6.3v-9.2c0-2.3-1.2-3.7-3.6-3.7-1.8 0-3.2 1-4.4 2.1l-.3-1.8h-1.8v12.6h2.3v-8.7c1.1-1.2 2.4-2 3.6-2 1.4 0 1.9.9 1.9 2.2v8.6h2.3v-.1z"/><path id="Fill-2" class="st1" d="M0 0v70.8h136.2v51.4H86.9V193h361.2v-61.6H478V60.5H337.3V0H0"/><path id="Fill-3" class="st2" d="M31 52V19h24v8.7H40.6V31h14.1v8.7H40.6V52H31"/><path id="Fill-4" class="st2" d="M63 52h10V19H63z"/><path id="Fill-5" class="st2" d="M102.6 52L90.8 35.3V52H81V19h10l11.2 15.6V19h9.8v33h-9.4"/><path id="Fill-6" class="st2" d="M141.9 52l-1.2-3.9h-11.6l-1.2 3.9H117l11.9-33h12.3L153 52h-11.1zM135 28.8l-3.2 10.6h6.4L135 28.8z"/><path id="Fill-7" class="st2" d="M178.6 52l-11.8-16.7V52H157V19h10l11.2 15.6V19h9.8v33h-9.4"/><path id="Fill-8" class="st2" d="M195 36c0-10.2 7.8-17 18.1-17 8.6 0 13 5 14.9 9.6l-8.6 4c-.8-2.6-3.4-4.8-6.4-4.8-4.8 0-8 3.6-8 8.2s3.2 8.2 8 8.2c3 0 5.5-2.2 6.4-4.8l8.6 3.9c-1.9 4.4-6.3 9.6-14.9 9.6C202.8 53 195 46.1 195 36"/><path id="Fill-9" class="st2" d="M234 52h10V19h-10z"/><path id="Fill-10" class="st3" d="M272.9 52l-1.2-3.9h-11.6l-1.2 3.9H248l11.9-33h12.3L284 52h-11.1zM266 28.8l-3.2 10.6h6.4L266 28.8z"/><path id="Fill-11" class="st2" d="M289 52V19h9.8v24.3H311V52h-22"/><path id="Fill-12" class="st2" d="M164 113h10V80h-10z"/><path id="Fill-13" class="st2" d="M203.6 113l-11.8-16.7V113H182V80h10l11.2 15.6V80h9.8v33h-9.4"/><path id="Fill-14" class="st2" d="M219 96c0-10.1 7.8-17 18.1-17 8.6 0 13 5 14.9 9.6l-8.6 4c-.8-2.6-3.4-4.8-6.4-4.8-4.8 0-8 3.6-8 8.2s3.2 8.2 8 8.2c3 0 5.5-2.2 6.4-4.8l8.6 3.9c-1.9 4.4-6.3 9.6-14.9 9.6-10.3.1-18.1-6.8-18.1-16.9"/><path id="Fill-15" class="st3" d="M258 113V80h9.8v24.3H280v8.7h-22"/><path id="Fill-16" class="st2" d="M285 99.1V80h10.3v18.8c0 3.1 2.1 5.6 6.3 5.6 4.1 0 6.2-2.5 6.2-5.6V80H318v19.1c0 8.1-5.2 13.9-16.5 13.9-11.2 0-16.5-5.9-16.5-13.9"/><path id="Fill-17" class="st2" d="M323 107.8l5.3-7.4c2.5 2.4 6.3 4.2 10.8 4.2 1.9 0 3.7-.5 3.7-1.8 0-3.2-18.7 0-18.7-12.9 0-5.6 4.7-10.9 13.9-10.9 5.5 0 10.4 1.5 14.2 4.6l-5.4 7.1c-2.9-2.2-6.7-3.3-9.8-3.3-2 0-2.6.6-2.6 1.5 0 3.1 18.6.4 18.6 12.7 0 7.3-5.5 11.4-14.4 11.4-7.2 0-12-2.1-15.6-5.2"/><path id="Fill-18" class="st2" d="M358 113h10V80h-10z"/><path id="Fill-19" class="st2" d="M374 96c0-10.1 7.8-17 18-17s18 6.9 18 17-7.8 17-18 17-18-6.9-18-17m25.9 0c0-4.6-3.1-8.2-7.9-8.2s-7.9 3.6-7.9 8.2 3.1 8.2 7.9 8.2 7.9-3.6 7.9-8.2"/><path id="Fill-20" class="st2" d="M437.6 113l-11.8-16.7V113H416V80h10l11.2 15.6V80h9.8v33h-9.4"/><path id="Fill-21" class="st4" d="M116 158c0-10.1 7.8-17 18.1-17 8.6 0 13 5 14.9 9.6l-8.6 4c-.8-2.6-3.4-4.8-6.4-4.8-4.8 0-8 3.6-8 8.2s3.2 8.2 8 8.2c3 0 5.5-2.2 6.4-4.8l8.6 3.9c-1.9 4.4-6.3 9.6-14.9 9.6-10.3.1-18.1-6.8-18.1-16.9"/><path id="Fill-22" class="st4" d="M175.9 174v-12.6h-11.8V174H154v-33h10.1v11.7h11.8V141H186v33h-10.1"/><path id="Fill-23" class="st4" d="M214.9 174l-1.2-3.9h-11.6l-1.2 3.9H190l11.9-33h12.3l11.9 33h-11.2zm-6.9-23.2l-3.2 10.6h6.4l-3.2-10.6z"/><path id="Fill-24" class="st4" d="M231 174v-33h9.8v24.3H253v8.7h-22"/><path id="Fill-25" class="st3" d="M258 174v-33h9.8v24.3H280v8.7h-22"/><path id="Fill-26" class="st4" d="M286 174v-33h24v8.7h-14.4v3.3h14.1v8.7h-14.1v3.6H310v8.7h-24"/><path id="Fill-27" class="st4" d="M339.6 174l-11.8-16.7V174H318v-33h10l11.2 15.6V141h9.8v33h-9.4"/><path id="Fill-28" class="st4" d="M356 158c0-10.5 8.1-17 18-17 7.8 0 12.3 4.3 14.4 8.6l-8.3 4.3c-.9-2-3.1-4.1-6-4.1-4.8 0-8 3.6-8 8.2s3.2 8.2 8 8.2c1.9 0 4.1-.7 5.1-1.5v-1.2H373v-8.7h16v13.5c-3.6 4-8.5 6.7-15 6.7-9.9 0-18-6.5-18-17"/><path id="Fill-29" class="st4" d="M396 174v-33h24v8.7h-14.4v3.3h14.1v8.7h-14.1v3.6H420v8.7h-24"/></g></g></g><g id="Welcome_1_"><g id="Artboard_1_" transform="translate(-481 -252)"><g id="FIC_FullLockup-01-Copy_1_" transform="translate(481 252)"><path id="Fill-1_1_" class="st0" d="M49.3 397.6c0-1.4-.6-2-2.3-2.8-1.4-.6-1.7-1-1.7-1.7s.5-1.2 1.5-1.2c.7 0 1.4.3 1.9.7l.2-1.2c-.5-.3-1.2-.5-2-.5-1.6 0-2.7.9-2.7 2.4 0 1.3.6 1.9 2.3 2.7 1.4.6 1.7 1 1.7 1.8 0 .9-.7 1.4-1.6 1.4-.9 0-1.7-.4-2.4-.8l-.2 1.3c.7.4 1.5.6 2.5.6 1.7-.2 2.8-1.1 2.8-2.7zm7.1-.9c0-2.1-1.1-3.1-2.4-3.1-.9 0-1.5.5-2 1l-.1-.9H51v8.8l1.2-.2v-2.5c.4.2.9.3 1.6.3 1.3 0 2.6-1.1 2.6-3.4zm-1.2.1c0 1.6-.7 2.4-1.7 2.4-.7 0-1-.1-1.5-.3v-3c.5-.7 1-1.1 1.7-1.1.9-.2 1.5.6 1.5 2zm8 .1c0-2.1-1.2-3.3-2.9-3.3-1.6 0-2.8 1.2-2.8 3.3 0 2.1 1.2 3.3 2.8 3.3 1.7 0 2.9-1.2 2.9-3.3zm-1.1 0c0 1.3-.6 2.3-1.7 2.3s-1.7-1-1.7-2.3.6-2.3 1.7-2.3 1.7 1 1.7 2.3zm7.7 3.1v-4.6c0-1.1-.6-1.9-1.8-1.9-.9 0-1.6.5-2.2 1l-.1-.9h-.9v6.3H66v-4.4c.6-.6 1.2-1 1.8-1 .7 0 .9.4.9 1.1v4.3h1.1v.1zm6.1-1.7c0-1.2-.7-1.7-2.2-2-1-.3-1.3-.5-1.3-.9s.4-.7 1.1-.7c.6 0 1.3.2 1.9.5l.2-1.1c-.6-.3-1.3-.4-2-.4-1.4 0-2.2.7-2.2 1.7 0 1.1.6 1.6 2 1.9 1.1.3 1.5.5 1.5 1.1 0 .5-.5.8-1.3.8s-1.6-.3-2.2-.7l-.2 1.1c.5.3 1.4.6 2.3.6 1.5 0 2.4-.8 2.4-1.9zm6.8-1.4c0-2.1-1.2-3.3-2.9-3.3-1.6 0-2.8 1.2-2.8 3.3 0 2.1 1.2 3.3 2.8 3.3 1.7 0 2.9-1.2 2.9-3.3zm-1.2 0c0 1.3-.6 2.3-1.7 2.3s-1.7-1-1.7-2.3.6-2.3 1.7-2.3 1.7 1 1.7 2.3zm6.1-2.2l-.2-1.1c-1 .1-1.7.7-2.2 1.4l-.2-1.3h-.9v6.3h1.2v-3.7c.4-.8 1.3-1.5 2.3-1.6zm6 2.1c0-1.7-.8-3.2-2.6-3.2-1.6 0-2.7 1.2-2.7 3.3 0 2.3 1.3 3.3 2.9 3.3 1 0 1.8-.3 2.5-.8l-.2-1.1c-.7.5-1.3.9-2.2.9-1.1 0-1.8-.7-1.8-2.2h4.2v-.2h-.1zm-1.2-.7h-3c.2-1.1.8-1.6 1.5-1.6.9 0 1.4.6 1.5 1.6zm7.8 3.9v-9.5l-1.2.2v3.3c-.4-.2-.9-.3-1.6-.3-1.5 0-2.8 1.1-2.8 3.4 0 2.1 1.1 3.1 2.4 3.1.9 0 1.5-.5 2-1l.1.9h1.1v-.1zm-1.1-2c-.5.7-1 1.1-1.8 1.1s-1.4-.7-1.4-2.1c0-1.6.7-2.4 1.7-2.4.7 0 1 .1 1.5.4v3zm11.2-1.3c0-2.1-1.1-3.1-2.4-3.1-.8 0-1.4.4-1.9.9v-4l-1.2.2v9c.8.3 1.5.4 2.4.4 1.9 0 3.1-1.1 3.1-3.4zm-1.1.1c0 1.6-.7 2.4-1.9 2.4-.6 0-.9-.1-1.2-.2v-3.2c.5-.6 1-1 1.7-1 .8-.2 1.4.6 1.4 2zm7.6-3.1h-1.2l-1.6 4.9-1.7-5-1.1.2 2.3 6.2-.2.6c-.2.5-.5.7-1 .7-.2 0-.5 0-.6-.1l.2 1c.1 0 .2.1.4.1 1 0 1.7-.4 2.2-1.9l2.3-6.7zm14 6.3l-.7-9.1h-1.5l-2.8 7.5-2.8-7.5h-1.5l-.7 9.1h1.1l.5-7.3 2.8 7.3h.9l2.8-7.3.6 7.3h1.3zm6.7-3.2c0-1.7-.8-3.2-2.6-3.2-1.6 0-2.7 1.2-2.7 3.3 0 2.3 1.3 3.3 2.9 3.3 1 0 1.8-.3 2.5-.8l-.2-1.1c-.7.5-1.3.9-2.2.9-1.1 0-1.8-.7-1.8-2.2h4.2l-.1-.2zm-1.1-.7h-3c.2-1.1.8-1.6 1.5-1.6.9 0 1.3.6 1.5 1.6zm5.6 4l-.2-1h-.5c-.6 0-.9-.3-.9-.8v-3.5h1.5l-.2-1h-1.3v-2.3l-1.1.2v2.1h-.9v1h.9v3.8c0 1.3.7 1.7 1.8 1.7.4-.2.7-.2.9-.2zm6.2-.1l-.2-1.1h-3.2v-8h-1.2v9.1h4.6zm2.7-8.3c0-.4-.3-.8-.7-.8s-.7.3-.7.8c0 .4.3.7.7.7.3.1.7-.3.7-.7zm-1.4 8.3h1.2v-6.3h-1.2v6.3zm6-8.3l-.2-1.1h-.5c-1.1 0-1.9.5-1.9 1.7v1.4h-.9v1h.9v5.3h1.1v-5.3h1.4l-.1-1h-1.2v-1.3c0-.6.3-.8.9-.8.2.1.4.1.5.1zm6 5.1c0-1.7-.8-3.2-2.6-3.2-1.6 0-2.7 1.2-2.7 3.3 0 2.3 1.3 3.3 2.9 3.3 1 0 1.8-.3 2.5-.8l-.2-1.1c-.7.5-1.3.9-2.2.9-1.1 0-1.8-.7-1.8-2.2h4.2l-.1-.2zm-1.1-.7h-3c.2-1.1.8-1.6 1.5-1.6.9 0 1.3.6 1.5 1.6zm10.3-4V391H166v9.1h1.2V396h2.9l-.2-1.1h-2.7v-2.8h3.5zm6.2 4.8c0-2.1-1.2-3.3-2.9-3.3-1.6 0-2.8 1.2-2.8 3.3 0 2.1 1.2 3.3 2.8 3.3 1.7 0 2.9-1.2 2.9-3.3zm-1.1 0c0 1.3-.6 2.3-1.7 2.3s-1.7-1-1.7-2.3.6-2.3 1.7-2.3 1.7 1 1.7 2.3zm7.6 3.1v-6.3h-1.2v4.4c-.6.6-1.2 1-1.8 1-.7 0-.9-.4-.9-1.1v-4.3h-1.2v4.6c0 1.1.6 1.9 1.8 1.9.9 0 1.6-.5 2.2-1l.1.9h1v-.1zm6.9 0v-4.6c0-1.1-.6-1.9-1.8-1.9-.9 0-1.6.5-2.2 1l-.1-.9h-.9v6.3h1.2v-4.4c.6-.6 1.2-1 1.8-1 .7 0 .9.4.9 1.1v4.3h1.1v.1zm7 0v-9.5l-1.2.2v3.3c-.4-.2-.9-.3-1.6-.3-1.5 0-2.8 1.1-2.8 3.4 0 2.1 1.1 3.1 2.4 3.1.9 0 1.5-.5 2-1l.1.9h1.1v-.1zm-1.2-2c-.5.7-1 1.1-1.8 1.1s-1.4-.7-1.4-2.1c0-1.6.7-2.4 1.7-2.4.7 0 1 .1 1.5.4v3zm7.7 2v-4.4c0-1.4-.7-2-2.2-2-1 0-1.7.2-2.4.5l.2 1c.7-.3 1.4-.5 2.1-.5.7 0 1.2.3 1.2 1.1v.3c-2.6.3-3.9.9-3.9 2.5 0 1.1.7 1.8 1.8 1.8 1 0 1.7-.5 2.2-1l.1.8.9-.1zm-1.2-1.7c-.5.5-1.2.9-1.8.9s-.9-.3-.9-.8c0-.6.5-1.3 2.8-1.5v1.4h-.1zm5.9 1.8l-.2-1h-.5c-.6 0-.9-.3-.9-.8v-3.5h1.5l-.2-1H207v-2.3l-1.1.2v2.1h-.9v1h.9v3.8c0 1.3.7 1.7 1.8 1.7.4-.2.6-.2.8-.2zm2.8-8.4c0-.4-.3-.8-.7-.8s-.7.3-.7.8c0 .4.3.7.7.7.4.1.7-.3.7-.7zM210 400h1.2v-6.3H210v6.3zm8.5-3.1c0-2.1-1.2-3.3-2.9-3.3-1.6 0-2.8 1.2-2.8 3.3 0 2.1 1.2 3.3 2.8 3.3 1.7 0 2.9-1.2 2.9-3.3zm-1.2 0c0 1.3-.6 2.3-1.7 2.3s-1.7-1-1.7-2.3.6-2.3 1.7-2.3 1.7 1 1.7 2.3zm7.7 3.1v-4.6c0-1.1-.6-1.9-1.8-1.9-.9 0-1.6.5-2.2 1l-.1-.9h-.9v6.3h1.2v-4.4c.6-.6 1.2-1 1.8-1 .7 0 1 .4 1 1.1v4.3h1v.1z"/><path id="Fill-2_1_" class="st1" d="M0 280v35.4h68.1v25.7H43.4v35.4h180.7v-30.8H239v-35.4h-70.3V280H0"/><path id="Fill-3_1_" class="st2" d="M15.5 306v-16.5h12v4.4h-7.2v1.6h7v4.3h-7v6.2h-4.8"/><path id="Fill-4_1_" class="st2" d="M31.5 306h5v-16.5h-5z"/><path id="Fill-5_1_" class="st2" d="M51.3 306l-5.9-8.4v8.4h-4.9v-16.5h5l5.6 7.8v-7.8H56V306h-4.7"/><path id="Fill-6_1_" class="st2" d="M71 306l-.6-1.9h-5.8L64 306h-5.5l5.9-16.5h6.1l5.9 16.5H71zm-3.5-11.6l-1.6 5.3h3.2l-1.6-5.3z"/><path id="Fill-7_1_" class="st2" d="M89.3 306l-5.9-8.4v8.4h-4.9v-16.5h5l5.6 7.8v-7.8H94V306h-4.7"/><path id="Fill-8_1_" class="st2" d="M97.5 298c0-5.1 3.9-8.5 9-8.5 4.3 0 6.5 2.5 7.5 4.8l-4.3 2c-.4-1.3-1.7-2.4-3.2-2.4-2.4 0-4 1.8-4 4.1s1.6 4.1 4 4.1c1.5 0 2.8-1.1 3.2-2.4l4.3 2c-1 2.2-3.2 4.8-7.5 4.8-5.1 0-9-3.4-9-8.5"/><path id="Fill-9_1_" class="st2" d="M117 306h5v-16.5h-5z"/><path id="Fill-10_1_" class="st3" d="M136.5 306l-.6-1.9h-5.8l-.6 1.9H124l5.9-16.5h6.1l6 16.5h-5.5zm-3.5-11.6l-1.6 5.3h3.2l-1.6-5.3z"/><path id="Fill-11_1_" class="st2" d="M144.5 306v-16.5h4.9v12.1h6.1v4.4h-11"/><path id="Fill-12_1_" class="st2" d="M82 336.5h5V320h-5z"/><path id="Fill-13_1_" class="st2" d="M101.8 336.5l-5.9-8.4v8.4H91V320h5l5.6 7.8V320h4.9v16.5h-4.7"/><path id="Fill-14_1_" class="st2" d="M109.5 328c0-5.1 3.9-8.5 9-8.5 4.3 0 6.5 2.5 7.5 4.8l-4.3 2c-.4-1.3-1.7-2.4-3.2-2.4-2.4 0-4 1.8-4 4.1s1.6 4.1 4 4.1c1.5 0 2.8-1.1 3.2-2.4l4.3 2c-1 2.2-3.2 4.8-7.5 4.8-5.1 0-9-3.4-9-8.5"/><path id="Fill-15_1_" class="st3" d="M129 336.5V320h4.9v12.1h6.1v4.4h-11"/><path id="Fill-16_1_" class="st2" d="M142.5 329.6V320h5.1v9.4c0 1.6 1.1 2.8 3.1 2.8 2.1 0 3.1-1.2 3.1-2.8V320h5.1v9.5c0 4-2.6 7-8.2 7s-8.2-2.9-8.2-6.9"/><path id="Fill-17_1_" class="st2" d="M161.5 333.9l2.6-3.7c1.3 1.2 3.1 2.1 5.4 2.1 1 0 1.9-.2 1.9-.9 0-1.6-9.3 0-9.3-6.5 0-2.8 2.4-5.5 6.9-5.5 2.7 0 5.2.8 7.1 2.3l-2.7 3.5c-1.5-1.1-3.3-1.6-4.9-1.6-1 0-1.3.3-1.3.7 0 1.6 9.3.2 9.3 6.3 0 3.6-2.7 5.7-7.2 5.7-3.6.2-6-.8-7.8-2.4"/><path id="Fill-18_1_" class="st2" d="M179 336.5h5V320h-5z"/><path id="Fill-19_1_" class="st2" d="M187 328c0-5.1 3.9-8.5 9-8.5s9 3.4 9 8.5-3.9 8.5-9 8.5-9-3.4-9-8.5m12.9 0c0-2.3-1.6-4.1-3.9-4.1-2.4 0-3.9 1.8-3.9 4.1s1.6 4.1 3.9 4.1c2.4 0 3.9-1.8 3.9-4.1"/><path id="Fill-20_1_" class="st2" d="M218.8 336.5l-5.9-8.4v8.4H208V320h5l5.6 7.8V320h4.9v16.5h-4.7"/><path id="Fill-21_1_" class="st4" d="M58 359c0-5.1 3.9-8.5 9-8.5 4.3 0 6.5 2.5 7.5 4.8l-4.3 2c-.4-1.3-1.7-2.4-3.2-2.4-2.4 0-4 1.8-4 4.1s1.6 4.1 4 4.1c1.5 0 2.8-1.1 3.2-2.4l4.3 2c-1 2.2-3.2 4.8-7.5 4.8-5.1 0-9-3.4-9-8.5"/><path id="Fill-22_1_" class="st4" d="M88 367v-6.3h-6v6.3h-5v-16.5h5v5.8h6v-5.8h5V367h-5"/><path id="Fill-23_1_" class="st4" d="M107.5 367l-.6-1.9h-5.8l-.6 1.9H95l5.9-16.5h6.1l6 16.5h-5.5zm-3.5-11.6l-1.6 5.3h3.2l-1.6-5.3z"/><path id="Fill-24_1_" class="st4" d="M115.5 367v-16.5h4.9v12.1h6.1v4.4h-11"/><path id="Fill-25_1_" class="st3" d="M129 367v-16.5h4.9v12.1h6.1v4.4h-11"/><path id="Fill-26_1_" class="st4" d="M143 367v-16.5h12v4.4h-7.2v1.6h7v4.3h-7v1.8h7.2v4.4h-12"/><path id="Fill-27_1_" class="st4" d="M169.8 367l-5.9-8.4v8.4H159v-16.5h5l5.6 7.8v-7.8h4.9V367h-4.7"/><path id="Fill-28_1_" class="st4" d="M178 359c0-5.3 4.1-8.5 9-8.5 3.9 0 6.2 2.2 7.2 4.3l-4.2 2.1c-.5-1-1.5-2-3-2-2.4 0-4 1.8-4 4.1s1.6 4.1 4 4.1c.9 0 2-.3 2.6-.7v-.6h-3v-4.3h8v6.7c-1.8 2-4.3 3.3-7.5 3.3-5 0-9.1-3.3-9.1-8.5"/><path id="Fill-29_1_" class="st4" d="M198 367v-16.5h12v4.4h-7.2v1.6h7v4.3h-7v1.8h7.2v4.4h-12"/></g></g></g><g id="Welcome_2_"><g id="Artboard_2_" transform="translate(-664 -1318)"><path id="Combined-Shape-Copy" class="st5" d="M1020.3 1671.3l52.4-51.9 1.4-1.4 2.8 2.8-1.4 1.4-52.4 51.9.1.1-2.8 2.8-1.4-1.4-53.6-53.1-1.4-1.4 2.8-2.8 1.4 1.4 52.1 51.6z"/></g></g><g id="Welcome_3_"><g id="Artboard_3_" transform="translate(-481 -252)"><g id="FIC_FullLockup-01-Copy_2_" transform="translate(481 252)"><path id="Fill-1_2_" class="st0" d="M36.1 561.1c0-1-.4-1.5-1.7-2.1-1-.4-1.2-.7-1.2-1.2s.4-.9 1.1-.9c.5 0 1 .2 1.4.5l.1-.9c-.4-.2-.9-.4-1.5-.4-1.2 0-2 .7-2 1.8 0 1 .4 1.4 1.7 2 1 .4 1.2.7 1.2 1.3 0 .7-.5 1-1.2 1s-1.2-.3-1.8-.6l-.1 1c.5.3 1.1.4 1.8.4 1.4-.1 2.2-.7 2.2-1.9zm5.2-.7c0-1.5-.8-2.3-1.8-2.3-.7 0-1.1.4-1.5.7l-.1-.7h-.7v6.4l.9-.1v-1.8c.3.1.7.2 1.2.2 1 .1 2-.7 2-2.4zm-.9.1c0 1.2-.5 1.8-1.2 1.8-.5 0-.7-.1-1.1-.2v-2.2c.4-.5.7-.8 1.2-.8.7-.2 1.1.4 1.1 1.4zm5.9.1c0-1.5-.9-2.4-2.1-2.4-1.2 0-2.1.9-2.1 2.4s.9 2.4 2.1 2.4c1.2 0 2.1-.9 2.1-2.4zm-.8 0c0 1-.4 1.7-1.2 1.7s-1.2-.7-1.2-1.7.4-1.7 1.2-1.7c.7 0 1.2.7 1.2 1.7zm5.6 2.3v-3.4c0-.8-.4-1.4-1.3-1.4-.7 0-1.2.4-1.6.7l-.1-.7h-.7v4.6h.9v-3.2c.4-.4.9-.7 1.3-.7.5 0 .7.3.7.8v3.1l.8.2zm4.5-1.3c0-.9-.5-1.2-1.6-1.5-.7-.2-1-.4-1-.7 0-.3.3-.5.8-.5.4 0 1 .1 1.4.4l.1-.8c-.4-.2-1-.3-1.5-.3-1 0-1.6.5-1.6 1.2 0 .8.4 1.2 1.5 1.4.8.2 1.1.4 1.1.8s-.4.6-1 .6-1.2-.2-1.6-.5l-.1.8c.4.2 1 .4 1.7.4 1.1.1 1.8-.5 1.8-1.3zm5-1c0-1.5-.9-2.4-2.1-2.4-1.2 0-2.1.9-2.1 2.4s.9 2.4 2.1 2.4c1.2 0 2.1-.9 2.1-2.4zm-.9 0c0 1-.4 1.7-1.2 1.7s-1.2-.7-1.2-1.7.4-1.7 1.2-1.7 1.2.7 1.2 1.7zm4.4-1.6l-.1-.8c-.7.1-1.2.5-1.6 1l-.1-1h-.7v4.6h.9v-2.7c.3-.5.9-1 1.6-1.1zm4.4 1.5c0-1.2-.6-2.3-1.9-2.3-1.2 0-2 .9-2 2.4 0 1.7 1 2.4 2.1 2.4.7 0 1.3-.2 1.8-.6l-.1-.8c-.5.4-1 .7-1.6.7-.8 0-1.3-.5-1.3-1.6h3.1l-.1-.2zm-.8-.5h-2.2c.1-.8.6-1.2 1.1-1.2.6 0 1 .5 1.1 1.2zm5.7 2.9v-7l-.9.1v2.4c-.3-.1-.7-.2-1.2-.2-1.1 0-2.1.8-2.1 2.5 0 1.5.8 2.3 1.8 2.3.7 0 1.1-.4 1.5-.7l.1.7.8-.1zm-.8-1.5c-.4.5-.7.8-1.3.8s-1-.5-1-1.5c0-1.2.5-1.8 1.2-1.8.5 0 .7.1 1.1.3v2.2zm8.2-1c0-1.5-.8-2.3-1.8-2.3-.6 0-1 .3-1.4.7v-2.9l-.9.1v6.6c.6.2 1.1.3 1.8.3 1.4 0 2.3-.8 2.3-2.5zm-.8.1c0 1.2-.5 1.8-1.4 1.8-.4 0-.7-.1-.9-.1v-2.3c.4-.4.7-.7 1.2-.7.6-.3 1.1.3 1.1 1.3zm5.5-2.2h-.9l-1.2 3.6-1.2-3.7-.8.1 1.7 4.5-.1.4c-.1.4-.4.5-.7.5-.1 0-.4 0-.4-.1l.1.7c.1 0 .1.1.3.1.7 0 1.2-.3 1.6-1.4l1.6-4.7zm10.3 4.6l-.5-6.7h-1.1l-2.1 5.5-2.1-5.5h-1l-.5 6.7h.8l.4-5.3 2.1 5.3h.7l2.1-5.3.4 5.3h.8zm4.9-2.4c0-1.2-.6-2.3-1.9-2.3-1.2 0-2 .9-2 2.4 0 1.7 1 2.4 2.1 2.4.7 0 1.3-.2 1.8-.6l-.1-.8c-.5.4-1 .7-1.6.7-.8 0-1.3-.5-1.3-1.6h3.1l-.1-.2zm-.8-.5h-2.2c.1-.8.6-1.2 1.1-1.2.6 0 .9.5 1.1 1.2zm4.1 2.9l-.1-.7h-.4c-.4 0-.7-.2-.7-.6V559h1.1l-.1-.7h-1v-1.7l-.8.1v1.5h-.7v.7h.7v2.8c0 1 .5 1.2 1.3 1.2h.7zm4.5 0l-.1-.8H106v-5.9h-.9v6.7h3.4zm2-6.1c0-.3-.2-.6-.5-.6s-.5.2-.5.6c0 .3.2.5.5.5.2.1.5-.2.5-.5zm-1 6.1h.9v-4.6h-.9v4.6zm4.4-6.1l-.1-.8h-.4c-.8 0-1.4.4-1.4 1.2v1h-.7v.7h.7v3.9h.8V559h1l-.1-.7h-.9v-1c0-.4.2-.6.7-.6.1.1.3.1.4.1zm4.4 3.7c0-1.2-.6-2.3-1.9-2.3-1.2 0-2 .9-2 2.4 0 1.7 1 2.4 2.1 2.4.7 0 1.3-.2 1.8-.6l-.1-.8c-.5.4-1 .7-1.6.7-.8 0-1.3-.5-1.3-1.6h3.1l-.1-.2zm-.9-.5h-2.2c.1-.8.6-1.2 1.1-1.2.7 0 1 .5 1.1 1.2zm7.6-2.9v-.8h-3.4v6.7h.9v-3h2.1l-.1-.8h-2v-2.1h2.5zm4.5 3.5c0-1.5-.9-2.4-2.1-2.4-1.2 0-2.1.9-2.1 2.4s.9 2.4 2.1 2.4c1.3 0 2.1-.9 2.1-2.4zm-.8 0c0 1-.4 1.7-1.2 1.7-.8 0-1.2-.7-1.2-1.7s.4-1.7 1.2-1.7c.8 0 1.2.7 1.2 1.7zm5.6 2.3v-4.6h-.9v3.2c-.4.4-.9.7-1.3.7-.5 0-.7-.3-.7-.8v-3.1h-.9v3.4c0 .8.4 1.4 1.3 1.4.7 0 1.2-.4 1.6-.7l.1.7.8-.2zm5 0v-3.4c0-.8-.4-1.4-1.3-1.4-.7 0-1.2.4-1.6.7l-.1-.7h-.7v4.6h.9v-3.2c.4-.4.9-.7 1.3-.7.5 0 .7.3.7.8v3.1l.8.2zm5.2 0v-7l-.9.1v2.4c-.3-.1-.7-.2-1.2-.2-1.1 0-2.1.8-2.1 2.5 0 1.5.8 2.3 1.8 2.3.7 0 1.1-.4 1.5-.7l.1.7.8-.1zm-.9-1.5c-.4.5-.7.8-1.3.8-.6 0-1-.5-1-1.5 0-1.2.5-1.8 1.2-1.8.5 0 .7.1 1.1.3v2.2zm5.6 1.5v-3.2c0-1-.5-1.5-1.6-1.5-.7 0-1.2.1-1.8.4l.1.7c.5-.2 1-.4 1.5-.4s.9.2.9.8v.2c-1.9.2-2.9.7-2.9 1.8 0 .8.5 1.3 1.3 1.3.7 0 1.2-.4 1.6-.7l.1.6h.8zm-.9-1.3c-.4.4-.9.7-1.3.7s-.7-.2-.7-.6c0-.4.4-1 2.1-1.1l-.1 1zm4.4 1.3l-.1-.7h-.4c-.4 0-.7-.2-.7-.6V559h1.1l-.1-.7h-.9v-1.7l-.8.1v1.5h-.7v.7h.7v2.8c0 1 .5 1.2 1.3 1.2h.6zm2-6.1c0-.3-.2-.6-.5-.6s-.5.2-.5.6c0 .3.2.5.5.5.3.1.5-.2.5-.5zm-.9 6.1h.9v-4.6h-.9v4.6zm6.2-2.3c0-1.5-.9-2.4-2.1-2.4-1.2 0-2.1.9-2.1 2.4s.9 2.4 2.1 2.4c1.2 0 2.1-.9 2.1-2.4zm-.9 0c0 1-.4 1.7-1.2 1.7-.8 0-1.2-.7-1.2-1.7s.4-1.7 1.2-1.7c.8 0 1.2.7 1.2 1.7zm5.6 2.3v-3.4c0-.8-.4-1.4-1.3-1.4-.7 0-1.2.4-1.6.7l-.1-.7h-.7v4.6h.9v-3.2c.4-.4.9-.7 1.3-.7.5 0 .7.3.7.8v3.1l.8.2z"/><path id="Fill-2_2_" class="st1" d="M0 475v25.9h49.9v18.8H31.8v26h132.3v-22.6H175v-25.9h-51.5V475H0"/><path id="Fill-3_2_" class="st2" d="M11.3 494v-12h8.8v3.2h-5.2v1.1H20v3.2h-5.1v4.5h-3.6"/><path id="Fill-4_2_" class="st2" d="M23.1 494h3.6v-12h-3.6z"/><path id="Fill-5_2_" class="st2" d="M37.6 494l-4.4-6.1v6.1h-3.5v-12h3.6l4.1 5.7V482H41v12h-3.4"/><path id="Fill-6_2_" class="st2" d="M52 494l-.4-1.4h-4.2L47 494h-4l4.3-12.1h4.5l4.3 12.1H52zm-2.6-8.5l-1.2 3.9h2.3l-1.1-3.9z"/><path id="Fill-7_2_" class="st2" d="M65.4 494l-4.3-6.1v6.1h-3.6v-12h3.6l4.1 5.7V482h3.6v12h-3.4"/><path id="Fill-8_2_" class="st2" d="M71.4 488.2c0-3.7 2.9-6.2 6.6-6.2 3.1 0 4.8 1.8 5.5 3.5l-3.1 1.5c-.3-1-1.2-1.8-2.3-1.8-1.8 0-2.9 1.3-2.9 3s1.2 3 2.9 3c1.1 0 2.1-.8 2.3-1.8l3.1 1.5c-.7 1.6-2.3 3.5-5.5 3.5-3.8 0-6.6-2.5-6.6-6.2"/><path id="Fill-9_2_" class="st2" d="M85.7 494h3.6v-12h-3.6z"/><path id="Fill-10_2_" class="st3" d="M99.9 494l-.4-1.4h-4.2l-.4 1.4h-4l4.3-12.1h4.5L104 494h-4.1zm-2.5-8.5l-1.2 3.9h2.3l-1.1-3.9z"/><path id="Fill-11_2_" class="st2" d="M105.8 494v-12h3.6v8.8h4.5v3.2h-8.1"/><path id="Fill-12_2_" class="st2" d="M60 516.4h3.7v-12.1H60z"/><path id="Fill-13_2_" class="st2" d="M74.5 516.4l-4.3-6.2v6.2h-3.6v-12.1h3.7l4.1 5.7v-5.7H78v12.1h-3.5"/><path id="Fill-14_2_" class="st2" d="M80.2 510.1c0-3.7 2.9-6.2 6.6-6.2 3.1 0 4.8 1.8 5.5 3.5l-3.1 1.5c-.3-1-1.2-1.8-2.3-1.8-1.8 0-2.9 1.3-2.9 3s1.2 3 2.9 3c1.1 0 2.1-.8 2.3-1.8l3.1 1.5c-.7 1.6-2.3 3.5-5.5 3.5-3.8.1-6.6-2.4-6.6-6.2"/><path id="Fill-15_2_" class="st3" d="M94.5 516.4v-12.1H98v8.8h4.5v3.3h-8"/><path id="Fill-16_2_" class="st2" d="M104.3 511.3v-7h3.7v6.9c0 1.2.8 2.1 2.3 2.1 1.5 0 2.3-.9 2.3-2.1v-6.9h3.7v7c0 2.9-1.9 5.1-6 5.1s-6-2.2-6-5.1"/><path id="Fill-17_2_" class="st2" d="M118.3 514.5l1.9-2.7c1 .9 2.3 1.5 4 1.5.7 0 1.4-.1 1.4-.7 0-1.2-6.8 0-6.8-4.8 0-2.1 1.8-4 5.1-4 2 0 3.8.6 5.2 1.7l-2 2.6c-1.1-.8-2.4-1.2-3.6-1.2-.7 0-1 .2-1 .5 0 1.2 6.8.1 6.8 4.6 0 2.6-2 4.2-5.3 4.2-2.7.2-4.4-.6-5.7-1.7"/><path id="Fill-18_2_" class="st2" d="M131.1 516.4h3.6v-12.1h-3.6z"/><path id="Fill-19_2_" class="st2" d="M136.9 510.1c0-3.7 2.9-6.2 6.6-6.2s6.6 2.5 6.6 6.2-2.9 6.2-6.6 6.2-6.6-2.4-6.6-6.2m9.5 0c0-1.7-1.2-3-2.9-3-1.8 0-2.9 1.3-2.9 3s1.2 3 2.9 3c1.8 0 2.9-1.3 2.9-3"/><path id="Fill-20_2_" class="st2" d="M160.2 516.4l-4.3-6.2v6.2h-3.6v-12.1h3.7l4.1 5.7v-5.7h3.6v12.1h-3.5"/><path id="Fill-21_2_" class="st4" d="M42.5 532.8c0-3.7 2.9-6.2 6.6-6.2 3.1 0 4.8 1.8 5.5 3.5l-3.1 1.5c-.3-1-1.2-1.8-2.3-1.8-1.8 0-2.9 1.3-2.9 3s1.2 3 2.9 3c1.1 0 2.1-.8 2.3-1.8l3.1 1.5c-.7 1.6-2.3 3.5-5.5 3.5-3.8.1-6.6-2.4-6.6-6.2"/><path id="Fill-22_2_" class="st4" d="M64.4 538.7v-4.6H60v4.6h-3.6v-12.1H60v4.3h4.4v-4.3h3.7v12.1h-3.7"/><path id="Fill-23_2_" class="st4" d="M78.7 538.7l-.4-1.4H74l-.4 1.4h-4l4.3-12.1h4.5l4.4 12.1h-4.1zm-2.5-8.5l-1.2 3.9h2.3l-1.1-3.9z"/><path id="Fill-24_2_" class="st4" d="M84.6 538.7v-12.1h3.6v8.9h4.4v3.2h-8"/><path id="Fill-25_2_" class="st3" d="M94.5 538.7v-12.1H98v8.9h4.5v3.2h-8"/><path id="Fill-26_2_" class="st4" d="M104.7 538.7v-12.1h8.8v3.2h-5.3v1.2h5.1v3.2h-5.1v1.3h5.3v3.2h-8.8"/><path id="Fill-27_2_" class="st4" d="M124.3 538.7l-4.3-6.1v6.1h-3.6v-12.1h3.7l4.1 5.7v-5.7h3.6v12.1h-3.5"/><path id="Fill-28_2_" class="st4" d="M130.3 532.8c0-3.9 3-6.2 6.6-6.2 2.9 0 4.5 1.6 5.3 3.1l-3.1 1.5c-.4-.7-1.1-1.5-2.2-1.5-1.8 0-2.9 1.3-2.9 3s1.2 3 2.9 3c.7 0 1.5-.2 1.9-.5v-.4h-2.2v-3.1h5.9v4.9c-1.3 1.5-3.1 2.4-5.5 2.4-3.7.1-6.7-2.3-6.7-6.2"/><path id="Fill-29_2_" class="st4" d="M145 538.7v-12.1h8.8v3.2h-5.3v1.2h5.1v3.2h-5.1v1.3h5.3v3.2H145"/></g></g></g><g id="Welcome_4_"><g id="Artboard_4_" transform="translate(-680 -3433)"><g id="Page-1" transform="translate(680 3433)"><path id="Fill-1_3_" class="st6" d="M321 515.5c0 22.4-18.1 40.5-40.5 40.5S240 537.9 240 515.5s18.1-40.5 40.5-40.5 40.5 18.1 40.5 40.5"/><path id="Fill-3_3_" class="st7" d="M299.6 493h-39.1c-1.3 0-2.4 1.1-2.4 2.4v39.1c0 1.3 1.1 2.4 2.4 2.4h21.1v-17h-5.7v-6.6h5.7v-4.9c0-5.7 3.5-8.8 8.5-8.8 2.4 0 4.5.2 5.1.3v5.9h-3.5c-2.8 0-3.3 1.3-3.3 3.2v4.2h6.6l-.9 6.6h-5.7v17h11.2c1.3 0 2.4-1.1 2.4-2.4v-39.1c0-1.2-1.1-2.3-2.4-2.3"/></g></g></g><g id="Welcome_5_"><g id="Artboard_5_" transform="translate(-869 -3433)"><g id="Page-1_1_" transform="translate(869 3433)"><path id="Fill-1_4_" class="st6" d="M456 515.5c0 22.4-18.1 40.5-40.5 40.5S375 537.9 375 515.5s18.1-40.5 40.5-40.5 40.5 18.1 40.5 40.5"/><path id="Fill-3_4_" class="st7" d="M438 501.4c-1.7.7-3.4 1.2-5.3 1.5 1.9-1.2 3.4-3 4.1-5.2-1.8 1.1-3.8 1.8-5.9 2.3-1.7-1.8-4.1-2.9-6.7-2.9-5.1 0-9.2 4.2-9.2 9.3 0 .7.1 1.4.2 2.1-7.7-.4-14.5-4.1-19-9.8-.8 1.4-1.3 3-1.3 4.7 0 3.2 1.6 6.1 4.1 7.8-1.5 0-2.9-.5-4.2-1.2v.1c0 4.5 3.2 8.3 7.4 9.2-.8.2-1.6.3-2.4.3-.6 0-1.2-.1-1.7-.2 1.2 3.7 4.6 6.4 8.6 6.5-3.2 2.5-7.1 4-11.5 4-.7 0-1.5 0-2.2-.1 4.1 2.7 8.9 4.2 14.2 4.2 17 0 26.3-14.2 26.3-26.6v-1.2c1.7-1.3 3.3-2.9 4.5-4.8"/></g></g></g><g id="Welcome_6_"><g id="Artboard_6_" transform="translate(-490 -3433)"><g id="Page-1_2_" transform="translate(490 3433)"><path id="Fill-1_5_" class="st6" d="M280.5 666c-22.4 0-40.5-18.1-40.5-40.5s18.1-40.5 40.5-40.5 40.5 18.1 40.5 40.5-18.1 40.5-40.5 40.5z"/><path id="Fill-3_5_" class="st7" d="M297.8 648h-34.6c-2.9 0-5.2-2.3-5.2-5.2v-34.6c0-2.9 2.3-5.2 5.2-5.2h34.6c2.9 0 5.2 2.3 5.2 5.2v34.6c0 2.9-2.3 5.2-5.2 5.2zm-17.3-31.2c-4.8 0-8.7 3.9-8.7 8.7 0 4.8 3.9 8.7 8.7 8.7 4.8 0 8.7-3.9 8.7-8.7 0-4.8-3.9-8.7-8.7-8.7zm17.3-6.9c0-1-.8-1.7-1.7-1.7h-5.2c-1 0-1.7.8-1.7 1.7v5.2c0 1 .8 1.7 1.7 1.7h5.2c1 0 1.7-.8 1.7-1.7v-5.2zm0 12.1h-3.9c.3 1.1.5 2.3.5 3.5 0 7.6-6.2 13.8-13.8 13.8-7.6 0-13.8-6.2-13.8-13.8 0-1.2.2-2.4.5-3.5h-3.9v19c0 1 .8 1.7 1.7 1.7h31.2c1 0 1.7-.8 1.7-1.7v-19z"/></g></g></g><g id="Welcome_9_"><g id="Artboard_9_" transform="translate(-680 -3433)"><g id="Page-1_5_" transform="translate(680 3433)"><path id="Fill-1_8_" class="st6" d="M50 645c0 13.8-11.2 25-25 25S0 658.8 0 645s11.2-25 25-25 25 11.2 25 25"/><path id="Fill-3_8_" class="st7" d="M36.8 631.1H12.6c-.8 0-1.5.7-1.5 1.5v24.2c0 .8.7 1.5 1.5 1.5h13v-10.5h-3.5v-4.1h3.5v-3c0-3.5 2.1-5.4 5.3-5.4 1.5 0 2.8.1 3.2.2v3.7h-2.2c-1.7 0-2 .8-2 2v2.6H34l-.5 4.1H30v10.5h6.9c.8 0 1.5-.7 1.5-1.5v-24.2c-.1-.9-.8-1.6-1.6-1.6"/></g></g></g><g id="Welcome_8_"><g id="Artboard_8_" transform="translate(-869 -3433)"><g id="Page-1_4_" transform="translate(869 3433)"><path id="Fill-1_7_" class="st6" d="M120 645c0 13.8-11.2 25-25 25s-25-11.2-25-25 11.2-25 25-25 25 11.2 25 25"/><path id="Fill-3_7_" class="st7" d="M108.9 636.3c-1 .5-2.1.8-3.3.9 1.2-.7 2.1-1.8 2.5-3.2-1.1.7-2.3 1.1-3.6 1.4-1-1.1-2.5-1.8-4.2-1.8-3.1 0-5.7 2.6-5.7 5.8 0 .5.1.9.1 1.3-4.7-.2-8.9-2.5-11.7-6-.5.9-.8 1.8-.8 2.9 0 2 1 3.8 2.5 4.8-.9 0-1.8-.3-2.6-.7v.1c0 2.8 2 5.1 4.6 5.7-.5.1-1 .2-1.5.2-.4 0-.7 0-1.1-.1.7 2.3 2.8 4 5.3 4-2 1.5-4.4 2.5-7.1 2.5-.5 0-.9 0-1.4-.1 2.5 1.6 5.5 2.6 8.7 2.6 10.5 0 16.2-8.8 16.2-16.4v-.7c1.4-1 2.3-2.1 3.1-3.2"/></g></g></g><g id="Welcome_7_"><g id="Artboard_7_" transform="translate(-490 -3433)"><g id="Page-1_3_" transform="translate(490 3433)"><path id="Fill-1_6_" class="st6" d="M165 670c-13.8 0-25-11.2-25-25s11.2-25 25-25 25 11.2 25 25-11.2 25-25 25z"/><path id="Fill-3_6_" class="st7" d="M175.7 658.9h-21.4c-1.8 0-3.2-1.4-3.2-3.2v-21.4c0-1.8 1.4-3.2 3.2-3.2h21.4c1.8 0 3.2 1.4 3.2 3.2v21.4c0 1.8-1.4 3.2-3.2 3.2zM165 639.7c-3 0-5.3 2.4-5.3 5.3 0 3 2.4 5.3 5.3 5.3 3 0 5.3-2.4 5.3-5.3 0-3-2.3-5.3-5.3-5.3zm10.7-4.3c0-.6-.5-1.1-1.1-1.1h-3.2c-.6 0-1.1.5-1.1 1.1v3.2c0 .6.5 1.1 1.1 1.1h3.2c.6 0 1.1-.5 1.1-1.1v-3.2zm0 7.5h-2.4c.2.7.3 1.4.3 2.1 0 4.7-3.8 8.5-8.5 8.5s-8.5-3.8-8.5-8.5c0-.7.1-1.5.3-2.1h-2.4v11.8c0 .6.5 1.1 1.1 1.1h19.2c.6 0 1.1-.5 1.1-1.1v-11.8z"/></g></g></g><g id="Welcome_10_"><g id="Artboard_10_" transform="translate(-664 -1318)"><path id="Combined-Shape-Copy_1_" class="st5" d="M1001.4 1768.4l34.8-34.5.9-.9 1.9 1.9-.9.9-34.8 34.5.1.1-1.9 1.9-.9-.9-35.6-35.3-.9-.9 1.9-1.9.9.9 34.5 34.2z"/></g></g><g id="Welcome_11_"><g id="Artboard_11_" transform="translate(-664 -1318)"><path id="Combined-Shape-Copy_2_" class="st8" d="M1116.4 1768.4l34.8-34.5.9-.9 1.9 1.9-.9.9-34.8 34.5.1.1-1.9 1.9-.9-.9-35.6-35.3-.9-.9 1.9-1.9.9.9 34.5 34.2z"/></g></g><g id="Welcome_12_"><g id="Artboard_12_" transform="translate(-664 -1318)"><path id="Combined-Shape-Copy_3_" class="st8" d="M1218.9 1761.3l27.8-27.6.7-.7 1.5 1.5-.7.7-27.8 27.6.1.1-1.5 1.5-.7-.7-28.5-28.2-.7-.7 1.5-1.5.7.7 27.6 27.3z"/></g></g><g id="Welcome_13_"><g id="Artboard_13_" transform="translate(-664 -1318)"><path id="Combined-Shape-Copy_4_" class="st8" d="M1126.5 1634.5l16.2-16.1.4-.4.9.9-.4.4-16.2 16.1-.9.9-.4-.4-16.6-16.5-.4-.4.9-.9.4.4 16.1 16z"/></g></g></svg>