<?xml version="1.0" encoding="utf-8"?>
<!-- Generator: Adobe Illustrator 21.0.0, SVG Export Plug-In . SVG Version: 6.00 Build 0)  -->
<svg version="1.1" id="Layer_1" xmlns="http://www.w3.org/2000/svg" xmlns:xlink="http://www.w3.org/1999/xlink" x="0px" y="0px"
	 width="585.7px" height="670px" viewBox="0 0 585.7 670" style="enable-background:new 0 0 585.7 670;" xml:space="preserve">
<style type="text/css">
	.st0{fill:#4A4A4A;}
	.st1{fill:#0A0B09;}
	.st2{fill:#4DB4DA;}
	.st3{fill:#FFFFFE;}
	.st4{fill:#5EB453;}
	.st5{fill:#D8D8D8;stroke:#D8D8D8;stroke-linecap:square;}
	.st6{fill:#939393;}
	.st7{fill:#FFFFFF;}
	.st8{fill:#FFFFFF;stroke:#FFFFFF;stroke-linecap:square;}
</style>
<desc>Created with Sketch.</desc>
<g id="Welcome">
	<g id="Artboard" transform="translate(-481.000000, -252.000000)">
		<g id="FIC_FullLockup-01-Copy" transform="translate(481.000000, 252.000000)">
			<path id="Fill-1" class="st0" d="M98.7,235.2c0-2.7-1.2-4-4.7-5.6c-2.7-1.3-3.4-1.9-3.4-3.3c0-1.3,0.9-2.5,3-2.5
				c1.4,0,2.8,0.6,3.8,1.3l0.4-2.5c-1-0.6-2.3-1-4.1-1c-3.2,0-5.5,1.9-5.5,4.8c0,2.6,1.3,3.8,4.7,5.3c2.7,1.2,3.4,1.9,3.4,3.6
				c0,1.8-1.3,2.8-3.2,2.8c-1.8,0-3.5-0.7-4.7-1.6L88,239c1.3,0.7,3.1,1.2,5,1.2C96.4,240.3,98.7,238.3,98.7,235.2z M112.8,233.4
				c0-4.2-2.2-6.2-4.9-6.2c-1.8,0-3.1,1-4,2.1l-0.3-1.8h-1.8V245l2.3-0.3v-5c0.8,0.3,1.9,0.6,3.1,0.6
				C110.2,240.2,112.8,238,112.8,233.4z M110.4,233.5c0,3.1-1.4,4.7-3.4,4.7c-1.3,0-2.1-0.2-3-0.7v-6.1c1-1.3,2.1-2.2,3.5-2.2
				C109.2,229.3,110.4,230.8,110.4,233.5z M126.5,233.8c0-4.1-2.4-6.6-5.8-6.6c-3.3,0-5.7,2.4-5.7,6.6c0,4.1,2.4,6.6,5.7,6.6
				C124,240.3,126.5,237.9,126.5,233.8z M124.1,233.8c0,2.6-1.1,4.6-3.4,4.6c-2.2,0-3.4-2-3.4-4.6s1.1-4.6,3.4-4.6
				C122.9,229.2,124.1,231.2,124.1,233.8z M139.5,240.1v-9.2c0-2.3-1.2-3.7-3.6-3.7c-1.8,0-3.2,1-4.4,2.1l-0.3-1.8h-1.8v12.6h2.3
				v-8.7c1.1-1.2,2.4-2,3.6-2c1.4,0,1.9,0.9,1.9,2.2v8.6h2.3V240.1z M151.8,236.6c0-2.4-1.4-3.3-4.4-4.1c-1.9-0.5-2.6-1-2.6-1.8
				c0-0.9,0.7-1.5,2.1-1.5c1.3,0,2.7,0.4,3.8,1.1l0.4-2.2c-1.2-0.5-2.5-0.8-4.1-0.8c-2.7,0-4.4,1.5-4.4,3.5c0,2.2,1.2,3.1,4.1,3.9
				c2.2,0.6,2.9,1,2.9,2.1s-0.9,1.7-2.5,1.7c-1.7,0-3.2-0.6-4.4-1.5l-0.3,2.2c1.1,0.6,2.9,1.2,4.5,1.2
				C150.1,240.3,151.8,238.9,151.8,236.6z M165.3,233.8c0-4.1-2.4-6.6-5.8-6.6c-3.3,0-5.7,2.4-5.7,6.6c0,4.1,2.4,6.6,5.7,6.6
				C162.9,240.3,165.3,237.9,165.3,233.8z M163,233.8c0,2.6-1.1,4.6-3.4,4.6c-2.2,0-3.4-2-3.4-4.6s1.1-4.6,3.4-4.6
				C161.8,229.2,163,231.2,163,233.8z M175.2,229.5l-0.4-2.2c-2,0.1-3.5,1.4-4.3,2.8l-0.4-2.6h-1.8v12.6h2.3v-7.5
				C171.4,231,173.2,229.6,175.2,229.5z M187.1,233.5c0-3.5-1.7-6.3-5.3-6.3c-3.1,0-5.5,2.5-5.5,6.5c0,4.6,2.5,6.6,5.7,6.6
				c2.1,0,3.6-0.6,5-1.7l-0.3-2.1c-1.4,1.1-2.6,1.8-4.4,1.8c-2.2,0-3.5-1.4-3.6-4.3h8.4L187.1,233.5L187.1,233.5z M184.8,232.3h-6
				c0.4-2.2,1.6-3.2,3-3.2C183.6,229.1,184.5,230.2,184.8,232.3z M200.4,240.1V221l-2.3,0.4v6.5c-0.8-0.3-1.9-0.6-3.1-0.6
				c-3,0-5.6,2.2-5.6,6.8c0,4.2,2.2,6.2,4.9,6.2c1.8,0,3.1-1,4-2.1l0.3,1.8h1.8V240.1z M198.1,236c-1,1.3-2.1,2.2-3.5,2.2
				c-1.7,0-2.9-1.5-2.9-4.2c0-3.1,1.4-4.7,3.4-4.7c1.3,0,2.1,0.2,3,0.7V236z M220.7,233.4c0-4.2-2.2-6.2-4.9-6.2
				c-1.7,0-2.9,0.9-3.7,1.7v-8l-2.3,0.4v18.1c1.6,0.5,3,0.8,4.8,0.8C218.2,240.2,220.7,238,220.7,233.4z M218.3,233.5
				c0,3.3-1.4,4.7-3.8,4.7c-1.1,0-1.7-0.1-2.5-0.4v-6.4c0.9-1.2,2.1-2.1,3.4-2.1C217.1,229.3,218.3,230.8,218.3,233.5z M233.5,227.5
				h-2.4l-3.3,9.9l-3.4-10l-2.3,0.4l4.5,12.5l-0.5,1.3c-0.4,1-1,1.5-2,1.5c-0.4,0-0.9-0.1-1.3-0.2l0.3,2.1c0.2,0.1,0.5,0.1,0.8,0.1
				c2.1,0,3.4-0.8,4.4-3.7L233.5,227.5z M261.5,240.1l-1.4-18.2h-3l-5.6,15l-5.6-15h-3l-1.4,18.2h2.3l1.1-14.5l5.7,14.6h1.8
				l5.7-14.6l1.1,14.5H261.5z M275.1,233.5c0-3.5-1.7-6.3-5.3-6.3c-3.1,0-5.5,2.5-5.5,6.5c0,4.6,2.5,6.6,5.7,6.6
				c2.1,0,3.6-0.6,5-1.7l-0.3-2.1c-1.4,1.1-2.6,1.8-4.4,1.8c-2.2,0-3.5-1.4-3.6-4.3h8.4L275.1,233.5L275.1,233.5z M272.7,232.3h-6
				c0.4-2.2,1.6-3.2,3-3.2C271.5,229.1,272.4,230.2,272.7,232.3z M283.9,240.1l-0.3-2c-0.3,0.1-0.6,0.1-1.1,0.1
				c-1.3,0-1.7-0.6-1.7-1.7v-7.1h3l-0.3-2h-2.7v-4.5l-2.3,0.3v4.2h-1.9v2h1.9v7.5c0,2.5,1.4,3.3,3.6,3.3
				C283,240.3,283.5,240.2,283.9,240.1z M296.3,240.1l-0.3-2.3h-6.5v-16h-2.4V240h9.2V240.1z M301.7,223.5c0-0.8-0.6-1.5-1.5-1.5
				c-0.8,0-1.5,0.7-1.5,1.5s0.7,1.5,1.5,1.5C301.1,224.9,301.7,224.3,301.7,223.5z M299.1,240.1h2.3v-12.6h-2.3V240.1z M311.1,223.4
				l-0.3-2.1c-0.2,0-0.5-0.1-1-0.1c-2.2,0-3.8,1-3.8,3.5v2.8h-2v2h1.9v10.6h2.3v-10.6h2.8l-0.3-2h-2.5V225c0-1.2,0.6-1.6,1.7-1.6
				C310.4,223.3,310.8,223.4,311.1,223.4z M323.1,233.5c0-3.5-1.7-6.3-5.3-6.3c-3.1,0-5.5,2.5-5.5,6.5c0,4.6,2.5,6.6,5.7,6.6
				c2.1,0,3.6-0.6,5-1.7l-0.3-2.1c-1.4,1.1-2.6,1.8-4.4,1.8c-2.2,0-3.5-1.4-3.6-4.3h8.4L323.1,233.5L323.1,233.5z M320.7,232.3h-6
				c0.4-2.2,1.6-3.2,3-3.2C319.6,229.1,320.5,230.2,320.7,232.3z M341.4,224.1v-2.3h-9.3V240h2.4v-8h5.8l-0.4-2.3h-5.4v-5.6
				L341.4,224.1L341.4,224.1z M353.9,233.8c0-4.1-2.4-6.6-5.8-6.6c-3.3,0-5.7,2.4-5.7,6.6c0,4.1,2.4,6.6,5.7,6.6
				C351.4,240.3,353.9,237.9,353.9,233.8z M351.5,233.8c0,2.6-1.1,4.6-3.4,4.6c-2.2,0-3.4-2-3.4-4.6s1.1-4.6,3.4-4.6
				C350.3,229.2,351.5,231.2,351.5,233.8z M366.9,240.1v-12.6h-2.3v8.7c-1.1,1.2-2.4,2-3.6,2c-1.4,0-1.9-0.9-1.9-2.2v-8.6h-2.3v9.2
				c0,2.3,1.2,3.7,3.6,3.7c1.7,0,3.2-1,4.4-2.1l0.3,1.8h1.8V240.1z M380.6,240.1v-9.2c0-2.3-1.2-3.7-3.6-3.7c-1.8,0-3.2,1-4.4,2.1
				l-0.3-1.8h-1.8v12.6h2.3v-8.7c1.1-1.2,2.4-2,3.6-2c1.4,0,1.9,0.9,1.9,2.2v8.6h2.3V240.1z M394.5,240.1V221l-2.3,0.4v6.5
				c-0.8-0.3-1.9-0.6-3.1-0.6c-3,0-5.6,2.2-5.6,6.8c0,4.2,2.2,6.2,4.9,6.2c1.8,0,3.1-1,4-2.1l0.3,1.8h1.8V240.1z M392.2,236
				c-1,1.3-2.1,2.2-3.5,2.2c-1.7,0-2.9-1.5-2.9-4.2c0-3.1,1.4-4.7,3.4-4.7c1.3,0,2.1,0.2,3,0.7V236z M407.5,240.1v-8.8
				c0-2.8-1.5-4-4.5-4c-1.9,0-3.3,0.4-4.8,1.1l0.3,2c1.4-0.6,2.8-1.1,4.3-1.1c1.4,0,2.4,0.6,2.4,2.1v0.5c-5.2,0.6-7.8,1.8-7.8,4.9
				c0,2.1,1.4,3.5,3.6,3.5c2,0,3.4-0.9,4.4-2l0.3,1.7h1.8V240.1z M405.2,236.6c-1,1.1-2.3,1.8-3.7,1.8c-1.2,0-1.8-0.7-1.8-1.7
				c0-1.3,1-2.6,5.5-3V236.6z M417.1,240.1l-0.3-2c-0.3,0.1-0.6,0.1-1.1,0.1c-1.3,0-1.7-0.6-1.7-1.7v-7.1h3l-0.3-2H414v-4.5
				l-2.3,0.3v4.2h-1.9v2h1.9v7.5c0,2.5,1.4,3.3,3.6,3.3C416.1,240.3,416.7,240.2,417.1,240.1z M422.7,223.5c0-0.8-0.6-1.5-1.5-1.5
				c-0.8,0-1.5,0.7-1.5,1.5s0.7,1.5,1.5,1.5C422,224.9,422.7,224.3,422.7,223.5z M420.1,240.1h2.3v-12.6h-2.3V240.1z M437,233.8
				c0-4.1-2.4-6.6-5.8-6.6c-3.3,0-5.7,2.4-5.7,6.6c0,4.1,2.4,6.6,5.7,6.6C434.5,240.3,437,237.9,437,233.8z M434.6,233.8
				c0,2.6-1.1,4.6-3.4,4.6c-2.2,0-3.4-2-3.4-4.6s1.1-4.6,3.4-4.6C433.4,229.2,434.6,231.2,434.6,233.8z M450,240.1v-9.2
				c0-2.3-1.2-3.7-3.6-3.7c-1.8,0-3.2,1-4.4,2.1l-0.3-1.8h-1.8v12.6h2.3v-8.7c1.1-1.2,2.4-2,3.6-2c1.4,0,1.9,0.9,1.9,2.2v8.6h2.3
				V240.1z"/>
			<polyline id="Fill-2" class="st1" points="0,0 0,70.8 136.2,70.8 136.2,122.2 86.9,122.2 86.9,193 448.1,193 448.1,131.4 
				478,131.4 478,60.5 337.3,60.5 337.3,0 0,0 			"/>
			<polyline id="Fill-3" class="st2" points="31,52 31,19 55,19 55,27.7 40.6,27.7 40.6,31 54.7,31 54.7,39.7 40.6,39.7 40.6,52 
				31,52 			"/>
			<polygon id="Fill-4" class="st2" points="63,52 73,52 73,19 63,19 			"/>
			<polyline id="Fill-5" class="st2" points="102.6,52 90.8,35.3 90.8,52 81,52 81,19 91,19 102.2,34.6 102.2,19 112,19 112,52 
				102.6,52 			"/>
			<path id="Fill-6" class="st2" d="M141.9,52l-1.2-3.9h-11.6l-1.2,3.9H117l11.9-33h12.3L153,52H141.9z M135,28.8l-3.2,10.6h6.4
				L135,28.8z"/>
			<polyline id="Fill-7" class="st2" points="178.6,52 166.8,35.3 166.8,52 157,52 157,19 167,19 178.2,34.6 178.2,19 188,19 
				188,52 178.6,52 			"/>
			<path id="Fill-8" class="st2" d="M195,36c0-10.2,7.8-17,18.1-17c8.6,0,13,5,14.9,9.6l-8.6,4c-0.8-2.6-3.4-4.8-6.4-4.8
				c-4.8,0-8,3.6-8,8.2s3.2,8.2,8,8.2c3,0,5.5-2.2,6.4-4.8l8.6,3.9c-1.9,4.4-6.3,9.6-14.9,9.6C202.8,53,195,46.1,195,36"/>
			<polygon id="Fill-9" class="st2" points="234,52 244,52 244,19 234,19 			"/>
			<path id="Fill-10" class="st3" d="M272.9,52l-1.2-3.9h-11.6l-1.2,3.9H248l11.9-33h12.3L284,52H272.9z M266,28.8l-3.2,10.6h6.4
				L266,28.8z"/>
			<polyline id="Fill-11" class="st2" points="289,52 289,19 298.8,19 298.8,43.3 311,43.3 311,52 289,52 			"/>
			<polygon id="Fill-12" class="st2" points="164,113 174,113 174,80 164,80 			"/>
			<polyline id="Fill-13" class="st2" points="203.6,113 191.8,96.3 191.8,113 182,113 182,80 192,80 203.2,95.6 203.2,80 213,80 
				213,113 203.6,113 			"/>
			<path id="Fill-14" class="st2" d="M219,96c0-10.1,7.8-17,18.1-17c8.6,0,13,5,14.9,9.6l-8.6,4c-0.8-2.6-3.4-4.8-6.4-4.8
				c-4.8,0-8,3.6-8,8.2s3.2,8.2,8,8.2c3,0,5.5-2.2,6.4-4.8l8.6,3.9c-1.9,4.4-6.3,9.6-14.9,9.6C226.8,113,219,106.1,219,96"/>
			<polyline id="Fill-15" class="st3" points="258,113 258,80 267.8,80 267.8,104.3 280,104.3 280,113 258,113 			"/>
			<path id="Fill-16" class="st2" d="M285,99.1V80h10.3v18.8c0,3.1,2.1,5.6,6.3,5.6c4.1,0,6.2-2.5,6.2-5.6V80H318v19.1
				c0,8.1-5.2,13.9-16.5,13.9C290.3,113,285,107.1,285,99.1"/>
			<path id="Fill-17" class="st2" d="M323,107.8l5.3-7.4c2.5,2.4,6.3,4.2,10.8,4.2c1.9,0,3.7-0.5,3.7-1.8c0-3.2-18.7,0-18.7-12.9
				c0-5.6,4.7-10.9,13.9-10.9c5.5,0,10.4,1.5,14.2,4.6l-5.4,7.1c-2.9-2.2-6.7-3.3-9.8-3.3c-2,0-2.6,0.6-2.6,1.5
				c0,3.1,18.6,0.4,18.6,12.7c0,7.3-5.5,11.4-14.4,11.4C331.4,113,326.6,110.9,323,107.8"/>
			<polygon id="Fill-18" class="st2" points="358,113 368,113 368,80 358,80 			"/>
			<path id="Fill-19" class="st2" d="M374,96c0-10.1,7.8-17,18-17s18,6.9,18,17s-7.8,17-18,17S374,106.1,374,96 M399.9,96
				c0-4.6-3.1-8.2-7.9-8.2s-7.9,3.6-7.9,8.2s3.1,8.2,7.9,8.2S399.9,100.6,399.9,96"/>
			<polyline id="Fill-20" class="st2" points="437.6,113 425.8,96.3 425.8,113 416,113 416,80 426,80 437.2,95.6 437.2,80 447,80 
				447,113 437.6,113 			"/>
			<path id="Fill-21" class="st4" d="M116,158c0-10.1,7.8-17,18.1-17c8.6,0,13,5,14.9,9.6l-8.6,4c-0.8-2.6-3.4-4.8-6.4-4.8
				c-4.8,0-8,3.6-8,8.2c0,4.6,3.2,8.2,8,8.2c3,0,5.5-2.2,6.4-4.8l8.6,3.9c-1.9,4.4-6.3,9.6-14.9,9.6C123.8,175,116,168.1,116,158"/>
			<polyline id="Fill-22" class="st4" points="175.9,174 175.9,161.4 164.1,161.4 164.1,174 154,174 154,141 164.1,141 164.1,152.7 
				175.9,152.7 175.9,141 186,141 186,174 175.9,174 			"/>
			<path id="Fill-23" class="st4" d="M214.9,174l-1.2-3.9h-11.6l-1.2,3.9H190l11.9-33h12.3l11.9,33H214.9z M208,150.8l-3.2,10.6h6.4
				L208,150.8z"/>
			<polyline id="Fill-24" class="st4" points="231,174 231,141 240.8,141 240.8,165.3 253,165.3 253,174 231,174 			"/>
			<polyline id="Fill-25" class="st3" points="258,174 258,141 267.8,141 267.8,165.3 280,165.3 280,174 258,174 			"/>
			<polyline id="Fill-26" class="st4" points="286,174 286,141 310,141 310,149.7 295.6,149.7 295.6,153 309.7,153 309.7,161.7 
				295.6,161.7 295.6,165.3 310,165.3 310,174 286,174 			"/>
			<polyline id="Fill-27" class="st4" points="339.6,174 327.8,157.3 327.8,174 318,174 318,141 328,141 339.2,156.6 339.2,141 
				349,141 349,174 339.6,174 			"/>
			<path id="Fill-28" class="st4" d="M356,158c0-10.5,8.1-17,18-17c7.8,0,12.3,4.3,14.4,8.6l-8.3,4.3c-0.9-2-3.1-4.1-6-4.1
				c-4.8,0-8,3.6-8,8.2c0,4.6,3.2,8.2,8,8.2c1.9,0,4.1-0.7,5.1-1.5v-1.2H373v-8.7h16v13.5c-3.6,4-8.5,6.7-15,6.7
				C364.1,175,356,168.5,356,158"/>
			<polyline id="Fill-29" class="st4" points="396,174 396,141 420,141 420,149.7 405.6,149.7 405.6,153 419.7,153 419.7,161.7 
				405.6,161.7 405.6,165.3 420,165.3 420,174 396,174 			"/>
		</g>
	</g>
</g>
<g id="Welcome_1_">
	<g id="Artboard_1_" transform="translate(-481.000000, -252.000000)">
		<g id="FIC_FullLockup-01-Copy_1_" transform="translate(481.000000, 252.000000)">
			<path id="Fill-1_1_" class="st0" d="M49.3,397.6c0-1.4-0.6-2-2.3-2.8c-1.4-0.6-1.7-1-1.7-1.7s0.5-1.2,1.5-1.2
				c0.7,0,1.4,0.3,1.9,0.7l0.2-1.2c-0.5-0.3-1.2-0.5-2-0.5c-1.6,0-2.7,0.9-2.7,2.4c0,1.3,0.6,1.9,2.3,2.7c1.4,0.6,1.7,1,1.7,1.8
				c0,0.9-0.7,1.4-1.6,1.4c-0.9,0-1.7-0.4-2.4-0.8l-0.2,1.3c0.7,0.4,1.5,0.6,2.5,0.6C48.2,400.1,49.3,399.2,49.3,397.6z M56.4,396.7
				c0-2.1-1.1-3.1-2.4-3.1c-0.9,0-1.5,0.5-2,1l-0.1-0.9H51v8.8l1.2-0.2v-2.5c0.4,0.2,0.9,0.3,1.6,0.3
				C55.1,400.1,56.4,399,56.4,396.7z M55.2,396.8c0,1.6-0.7,2.4-1.7,2.4c-0.7,0-1-0.1-1.5-0.3v-3c0.5-0.7,1-1.1,1.7-1.1
				C54.6,394.6,55.2,395.4,55.2,396.8z M63.2,396.9c0-2.1-1.2-3.3-2.9-3.3c-1.6,0-2.8,1.2-2.8,3.3c0,2.1,1.2,3.3,2.8,3.3
				C62,400.2,63.2,399,63.2,396.9z M62.1,396.9c0,1.3-0.6,2.3-1.7,2.3c-1.1,0-1.7-1-1.7-2.3s0.6-2.3,1.7-2.3S62.1,395.6,62.1,396.9z
				 M69.8,400v-4.6c0-1.1-0.6-1.9-1.8-1.9c-0.9,0-1.6,0.5-2.2,1l-0.1-0.9h-0.9v6.3H66v-4.4c0.6-0.6,1.2-1,1.8-1
				c0.7,0,0.9,0.4,0.9,1.1v4.3h1.1V400z M75.9,398.3c0-1.2-0.7-1.7-2.2-2c-1-0.3-1.3-0.5-1.3-0.9s0.4-0.7,1.1-0.7
				c0.6,0,1.3,0.2,1.9,0.5l0.2-1.1c-0.6-0.3-1.3-0.4-2-0.4c-1.4,0-2.2,0.7-2.2,1.7c0,1.1,0.6,1.6,2,1.9c1.1,0.3,1.5,0.5,1.5,1.1
				c0,0.5-0.5,0.8-1.3,0.8s-1.6-0.3-2.2-0.7l-0.2,1.1c0.5,0.3,1.4,0.6,2.3,0.6C75,400.2,75.9,399.4,75.9,398.3z M82.7,396.9
				c0-2.1-1.2-3.3-2.9-3.3c-1.6,0-2.8,1.2-2.8,3.3c0,2.1,1.2,3.3,2.8,3.3C81.5,400.2,82.7,399,82.7,396.9z M81.5,396.9
				c0,1.3-0.6,2.3-1.7,2.3s-1.7-1-1.7-2.3s0.6-2.3,1.7-2.3S81.5,395.6,81.5,396.9z M87.6,394.7l-0.2-1.1c-1,0.1-1.7,0.7-2.2,1.4
				l-0.2-1.3h-0.9v6.3h1.2v-3.7C85.7,395.5,86.6,394.8,87.6,394.7z M93.6,396.8c0-1.7-0.8-3.2-2.6-3.2c-1.6,0-2.7,1.2-2.7,3.3
				c0,2.3,1.3,3.3,2.9,3.3c1,0,1.8-0.3,2.5-0.8l-0.2-1.1c-0.7,0.5-1.3,0.9-2.2,0.9c-1.1,0-1.8-0.7-1.8-2.2h4.2v-0.2H93.6z
				 M92.4,396.1h-3c0.2-1.1,0.8-1.6,1.5-1.6C91.8,394.5,92.3,395.1,92.4,396.1z M100.2,400v-9.5l-1.2,0.2v3.3
				c-0.4-0.2-0.9-0.3-1.6-0.3c-1.5,0-2.8,1.1-2.8,3.4c0,2.1,1.1,3.1,2.4,3.1c0.9,0,1.5-0.5,2-1l0.1,0.9h1.1V400z M99.1,398
				c-0.5,0.7-1,1.1-1.8,1.1s-1.4-0.7-1.4-2.1c0-1.6,0.7-2.4,1.7-2.4c0.7,0,1,0.1,1.5,0.4C99.1,395,99.1,398,99.1,398z M110.3,396.7
				c0-2.1-1.1-3.1-2.4-3.1c-0.8,0-1.4,0.4-1.9,0.9v-4l-1.2,0.2v9c0.8,0.3,1.5,0.4,2.4,0.4C109.1,400.1,110.3,399,110.3,396.7z
				 M109.2,396.8c0,1.6-0.7,2.4-1.9,2.4c-0.6,0-0.9-0.1-1.2-0.2v-3.2c0.5-0.6,1-1,1.7-1C108.6,394.6,109.2,395.4,109.2,396.8z
				 M116.8,393.7h-1.2l-1.6,4.9l-1.7-5l-1.1,0.2l2.3,6.2l-0.2,0.6c-0.2,0.5-0.5,0.7-1,0.7c-0.2,0-0.5,0-0.6-0.1l0.2,1
				c0.1,0,0.2,0.1,0.4,0.1c1,0,1.7-0.4,2.2-1.9L116.8,393.7z M130.8,400l-0.7-9.1h-1.5l-2.8,7.5l-2.8-7.5h-1.5l-0.7,9.1h1.1l0.5-7.3
				l2.8,7.3h0.9l2.8-7.3l0.6,7.3H130.8z M137.5,396.8c0-1.7-0.8-3.2-2.6-3.2c-1.6,0-2.7,1.2-2.7,3.3c0,2.3,1.3,3.3,2.9,3.3
				c1,0,1.8-0.3,2.5-0.8l-0.2-1.1c-0.7,0.5-1.3,0.9-2.2,0.9c-1.1,0-1.8-0.7-1.8-2.2h4.2L137.5,396.8L137.5,396.8z M136.4,396.1h-3
				c0.2-1.1,0.8-1.6,1.5-1.6C135.8,394.5,136.2,395.1,136.4,396.1z M142,400.1l-0.2-1c-0.1,0-0.3,0-0.5,0c-0.6,0-0.9-0.3-0.9-0.8
				v-3.5h1.5l-0.2-1h-1.3v-2.3l-1.1,0.2v2.1h-0.9v1h0.9v3.8c0,1.3,0.7,1.7,1.8,1.7C141.5,400.1,141.8,400.1,142,400.1z M148.2,400
				l-0.2-1.1h-3.2v-8h-1.2v9.1H148.2z M150.9,391.7c0-0.4-0.3-0.8-0.7-0.8s-0.7,0.3-0.7,0.8c0,0.4,0.3,0.7,0.7,0.7
				C150.5,392.5,150.9,392.1,150.9,391.7z M149.5,400h1.2v-6.3h-1.2V400z M155.5,391.7l-0.2-1.1c-0.1,0-0.3,0-0.5,0
				c-1.1,0-1.9,0.5-1.9,1.7v1.4H152v1h0.9v5.3h1.1v-5.3h1.4l-0.1-1h-1.2v-1.3c0-0.6,0.3-0.8,0.9-0.8
				C155.2,391.7,155.4,391.7,155.5,391.7z M161.5,396.8c0-1.7-0.8-3.2-2.6-3.2c-1.6,0-2.7,1.2-2.7,3.3c0,2.3,1.3,3.3,2.9,3.3
				c1,0,1.8-0.3,2.5-0.8l-0.2-1.1c-0.7,0.5-1.3,0.9-2.2,0.9c-1.1,0-1.8-0.7-1.8-2.2h4.2L161.5,396.8L161.5,396.8z M160.4,396.1h-3
				c0.2-1.1,0.8-1.6,1.5-1.6C159.8,394.5,160.2,395.1,160.4,396.1z M170.7,392.1V391H166v9.1h1.2V396h2.9l-0.2-1.1h-2.7v-2.8H170.7z
				 M176.9,396.9c0-2.1-1.2-3.3-2.9-3.3c-1.6,0-2.8,1.2-2.8,3.3c0,2.1,1.2,3.3,2.8,3.3C175.7,400.2,176.9,399,176.9,396.9z
				 M175.8,396.9c0,1.3-0.6,2.3-1.7,2.3c-1.1,0-1.7-1-1.7-2.3s0.6-2.3,1.7-2.3S175.8,395.6,175.8,396.9z M183.4,400v-6.3h-1.2v4.4
				c-0.6,0.6-1.2,1-1.8,1c-0.7,0-0.9-0.4-0.9-1.1v-4.3h-1.2v4.6c0,1.1,0.6,1.9,1.8,1.9c0.9,0,1.6-0.5,2.2-1l0.1,0.9h1V400z
				 M190.3,400v-4.6c0-1.1-0.6-1.9-1.8-1.9c-0.9,0-1.6,0.5-2.2,1l-0.1-0.9h-0.9v6.3h1.2v-4.4c0.6-0.6,1.2-1,1.8-1
				c0.7,0,0.9,0.4,0.9,1.1v4.3h1.1V400z M197.3,400v-9.5l-1.2,0.2v3.3c-0.4-0.2-0.9-0.3-1.6-0.3c-1.5,0-2.8,1.1-2.8,3.4
				c0,2.1,1.1,3.1,2.4,3.1c0.9,0,1.5-0.5,2-1l0.1,0.9h1.1V400z M196.1,398c-0.5,0.7-1,1.1-1.8,1.1s-1.4-0.7-1.4-2.1
				c0-1.6,0.7-2.4,1.7-2.4c0.7,0,1,0.1,1.5,0.4V398z M203.8,400v-4.4c0-1.4-0.7-2-2.2-2c-1,0-1.7,0.2-2.4,0.5l0.2,1
				c0.7-0.3,1.4-0.5,2.1-0.5c0.7,0,1.2,0.3,1.2,1.1v0.3c-2.6,0.3-3.9,0.9-3.9,2.5c0,1.1,0.7,1.8,1.8,1.8c1,0,1.7-0.5,2.2-1l0.1,0.8
				L203.8,400L203.8,400z M202.6,398.3c-0.5,0.5-1.2,0.9-1.8,0.9s-0.9-0.3-0.9-0.8c0-0.6,0.5-1.3,2.8-1.5v1.4H202.6z M208.5,400.1
				l-0.2-1c-0.1,0-0.3,0-0.5,0c-0.6,0-0.9-0.3-0.9-0.8v-3.5h1.5l-0.2-1H207v-2.3l-1.1,0.2v2.1H205v1h0.9v3.8c0,1.3,0.7,1.7,1.8,1.7
				C208.1,400.1,208.3,400.1,208.5,400.1z M211.3,391.7c0-0.4-0.3-0.8-0.7-0.8s-0.7,0.3-0.7,0.8c0,0.4,0.3,0.7,0.7,0.7
				C211,392.5,211.3,392.1,211.3,391.7z M210,400h1.2v-6.3H210V400z M218.5,396.9c0-2.1-1.2-3.3-2.9-3.3c-1.6,0-2.8,1.2-2.8,3.3
				c0,2.1,1.2,3.3,2.8,3.3C217.3,400.2,218.5,399,218.5,396.9z M217.3,396.9c0,1.3-0.6,2.3-1.7,2.3c-1.1,0-1.7-1-1.7-2.3
				s0.6-2.3,1.7-2.3S217.3,395.6,217.3,396.9z M225,400v-4.6c0-1.1-0.6-1.9-1.8-1.9c-0.9,0-1.6,0.5-2.2,1l-0.1-0.9H220v6.3h1.2v-4.4
				c0.6-0.6,1.2-1,1.8-1c0.7,0,1,0.4,1,1.1v4.3h1V400z"/>
			<polyline id="Fill-2_1_" class="st1" points="0,280 0,315.4 68.1,315.4 68.1,341.1 43.4,341.1 43.4,376.5 224.1,376.5 
				224.1,345.7 239,345.7 239,310.3 168.7,310.3 168.7,280 0,280 			"/>
			<polyline id="Fill-3_1_" class="st2" points="15.5,306 15.5,289.5 27.5,289.5 27.5,293.9 20.3,293.9 20.3,295.5 27.3,295.5 
				27.3,299.8 20.3,299.8 20.3,306 15.5,306 			"/>
			<polygon id="Fill-4_1_" class="st2" points="31.5,306 36.5,306 36.5,289.5 31.5,289.5 			"/>
			<polyline id="Fill-5_1_" class="st2" points="51.3,306 45.4,297.6 45.4,306 40.5,306 40.5,289.5 45.5,289.5 51.1,297.3 
				51.1,289.5 56,289.5 56,306 51.3,306 			"/>
			<path id="Fill-6_1_" class="st2" d="M71,306l-0.6-1.9h-5.8L64,306h-5.5l5.9-16.5h6.1l5.9,16.5H71z M67.5,294.4l-1.6,5.3h3.2
				L67.5,294.4z"/>
			<polyline id="Fill-7_1_" class="st2" points="89.3,306 83.4,297.6 83.4,306 78.5,306 78.5,289.5 83.5,289.5 89.1,297.3 
				89.1,289.5 94,289.5 94,306 89.3,306 			"/>
			<path id="Fill-8_1_" class="st2" d="M97.5,298c0-5.1,3.9-8.5,9-8.5c4.3,0,6.5,2.5,7.5,4.8l-4.3,2c-0.4-1.3-1.7-2.4-3.2-2.4
				c-2.4,0-4,1.8-4,4.1c0,2.3,1.6,4.1,4,4.1c1.5,0,2.8-1.1,3.2-2.4l4.3,2c-1,2.2-3.2,4.8-7.5,4.8C101.4,306.5,97.5,303.1,97.5,298"
				/>
			<polygon id="Fill-9_1_" class="st2" points="117,306 122,306 122,289.5 117,289.5 			"/>
			<path id="Fill-10_1_" class="st3" d="M136.5,306l-0.6-1.9h-5.8l-0.6,1.9H124l5.9-16.5h6.1l6,16.5H136.5z M133,294.4l-1.6,5.3h3.2
				L133,294.4z"/>
			<polyline id="Fill-11_1_" class="st2" points="144.5,306 144.5,289.5 149.4,289.5 149.4,301.6 155.5,301.6 155.5,306 144.5,306 
							"/>
			<polygon id="Fill-12_1_" class="st2" points="82,336.5 87,336.5 87,320 82,320 			"/>
			<polyline id="Fill-13_1_" class="st2" points="101.8,336.5 95.9,328.1 95.9,336.5 91,336.5 91,320 96,320 101.6,327.8 101.6,320 
				106.5,320 106.5,336.5 101.8,336.5 			"/>
			<path id="Fill-14_1_" class="st2" d="M109.5,328c0-5.1,3.9-8.5,9-8.5c4.3,0,6.5,2.5,7.5,4.8l-4.3,2c-0.4-1.3-1.7-2.4-3.2-2.4
				c-2.4,0-4,1.8-4,4.1c0,2.3,1.6,4.1,4,4.1c1.5,0,2.8-1.1,3.2-2.4l4.3,2c-1,2.2-3.2,4.8-7.5,4.8C113.4,336.5,109.5,333.1,109.5,328
				"/>
			<polyline id="Fill-15_1_" class="st3" points="129,336.5 129,320 133.9,320 133.9,332.1 140,332.1 140,336.5 129,336.5 			"/>
			<path id="Fill-16_1_" class="st2" d="M142.5,329.6V320h5.1v9.4c0,1.6,1.1,2.8,3.1,2.8c2.1,0,3.1-1.2,3.1-2.8V320h5.1v9.5
				c0,4-2.6,7-8.2,7C145.1,336.5,142.5,333.6,142.5,329.6"/>
			<path id="Fill-17_1_" class="st2" d="M161.5,333.9l2.6-3.7c1.3,1.2,3.1,2.1,5.4,2.1c1,0,1.9-0.2,1.9-0.9c0-1.6-9.3,0-9.3-6.5
				c0-2.8,2.4-5.5,6.9-5.5c2.7,0,5.2,0.8,7.1,2.3l-2.7,3.5c-1.5-1.1-3.3-1.6-4.9-1.6c-1,0-1.3,0.3-1.3,0.7c0,1.6,9.3,0.2,9.3,6.3
				c0,3.6-2.7,5.7-7.2,5.7C165.7,336.5,163.3,335.5,161.5,333.9"/>
			<polygon id="Fill-18_1_" class="st2" points="179,336.5 184,336.5 184,320 179,320 			"/>
			<path id="Fill-19_1_" class="st2" d="M187,328c0-5.1,3.9-8.5,9-8.5s9,3.4,9,8.5s-3.9,8.5-9,8.5S187,333.1,187,328 M199.9,328
				c0-2.3-1.6-4.1-3.9-4.1c-2.4,0-3.9,1.8-3.9,4.1c0,2.3,1.6,4.1,3.9,4.1C198.4,332.1,199.9,330.3,199.9,328"/>
			<polyline id="Fill-20_1_" class="st2" points="218.8,336.5 212.9,328.1 212.9,336.5 208,336.5 208,320 213,320 218.6,327.8 
				218.6,320 223.5,320 223.5,336.5 218.8,336.5 			"/>
			<path id="Fill-21_1_" class="st4" d="M58,359c0-5.1,3.9-8.5,9-8.5c4.3,0,6.5,2.5,7.5,4.8l-4.3,2c-0.4-1.3-1.7-2.4-3.2-2.4
				c-2.4,0-4,1.8-4,4.1c0,2.3,1.6,4.1,4,4.1c1.5,0,2.8-1.1,3.2-2.4l4.3,2c-1,2.2-3.2,4.8-7.5,4.8C61.9,367.5,58,364.1,58,359"/>
			<polyline id="Fill-22_1_" class="st4" points="88,367 88,360.7 82,360.7 82,367 77,367 77,350.5 82,350.5 82,356.3 88,356.3 
				88,350.5 93,350.5 93,367 88,367 			"/>
			<path id="Fill-23_1_" class="st4" d="M107.5,367l-0.6-1.9h-5.8l-0.6,1.9H95l5.9-16.5h6.1l6,16.5H107.5z M104,355.4l-1.6,5.3h3.2
				L104,355.4z"/>
			<polyline id="Fill-24_1_" class="st4" points="115.5,367 115.5,350.5 120.4,350.5 120.4,362.6 126.5,362.6 126.5,367 115.5,367 
							"/>
			<polyline id="Fill-25_1_" class="st3" points="129,367 129,350.5 133.9,350.5 133.9,362.6 140,362.6 140,367 129,367 			"/>
			<polyline id="Fill-26_1_" class="st4" points="143,367 143,350.5 155,350.5 155,354.9 147.8,354.9 147.8,356.5 154.8,356.5 
				154.8,360.8 147.8,360.8 147.8,362.6 155,362.6 155,367 143,367 			"/>
			<polyline id="Fill-27_1_" class="st4" points="169.8,367 163.9,358.6 163.9,367 159,367 159,350.5 164,350.5 169.6,358.3 
				169.6,350.5 174.5,350.5 174.5,367 169.8,367 			"/>
			<path id="Fill-28_1_" class="st4" d="M178,359c0-5.3,4.1-8.5,9-8.5c3.9,0,6.2,2.2,7.2,4.3l-4.2,2.1c-0.5-1-1.5-2-3-2
				c-2.4,0-4,1.8-4,4.1c0,2.3,1.6,4.1,4,4.1c0.9,0,2-0.3,2.6-0.7v-0.6h-3v-4.3h8v6.7c-1.8,2-4.3,3.3-7.5,3.3
				C182.1,367.5,178,364.2,178,359"/>
			<polyline id="Fill-29_1_" class="st4" points="198,367 198,350.5 210,350.5 210,354.9 202.8,354.9 202.8,356.5 209.8,356.5 
				209.8,360.8 202.8,360.8 202.8,362.6 210,362.6 210,367 198,367 			"/>
		</g>
	</g>
</g>
<g id="Welcome_2_">
	<g id="Artboard_2_" transform="translate(-664.000000, -1318.000000)">
		<path id="Combined-Shape-Copy" class="st5" d="M1020.3,1671.3l52.4-51.9l1.4-1.4l2.8,2.8l-1.4,1.4l-52.4,51.9l0.1,0.1l-2.8,2.8
			l-1.4-1.4l-53.6-53.1l-1.4-1.4l2.8-2.8l1.4,1.4L1020.3,1671.3z"/>
	</g>
</g>
<g id="Welcome_3_">
	<g id="Artboard_3_" transform="translate(-481.000000, -252.000000)">
		<g id="FIC_FullLockup-01-Copy_2_" transform="translate(481.000000, 252.000000)">
			<path id="Fill-1_2_" class="st0" d="M36.1,561.1c0-1-0.4-1.5-1.7-2.1c-1-0.4-1.2-0.7-1.2-1.2c0-0.5,0.4-0.9,1.1-0.9
				c0.5,0,1,0.2,1.4,0.5l0.1-0.9c-0.4-0.2-0.9-0.4-1.5-0.4c-1.2,0-2,0.7-2,1.8c0,1,0.4,1.4,1.7,2c1,0.4,1.2,0.7,1.2,1.3
				c0,0.7-0.5,1-1.2,1c-0.7,0-1.2-0.3-1.8-0.6l-0.1,1c0.5,0.3,1.1,0.4,1.8,0.4C35.3,562.9,36.1,562.3,36.1,561.1z M41.3,560.4
				c0-1.5-0.8-2.3-1.8-2.3c-0.7,0-1.1,0.4-1.5,0.7l-0.1-0.7h-0.7v6.4l0.9-0.1v-1.8c0.3,0.1,0.7,0.2,1.2,0.2
				C40.3,562.9,41.3,562.1,41.3,560.4z M40.4,560.5c0,1.2-0.5,1.8-1.2,1.8c-0.5,0-0.7-0.1-1.1-0.2v-2.2c0.4-0.5,0.7-0.8,1.2-0.8
				C40,558.9,40.4,559.5,40.4,560.5z M46.3,560.6c0-1.5-0.9-2.4-2.1-2.4c-1.2,0-2.1,0.9-2.1,2.4s0.9,2.4,2.1,2.4
				C45.4,563,46.3,562.1,46.3,560.6z M45.5,560.6c0,1-0.4,1.7-1.2,1.7s-1.2-0.7-1.2-1.7c0-1,0.4-1.7,1.2-1.7
				C45,558.9,45.5,559.6,45.5,560.6z M51.1,562.9v-3.4c0-0.8-0.4-1.4-1.3-1.4c-0.7,0-1.2,0.4-1.6,0.7l-0.1-0.7h-0.7v4.6h0.9v-3.2
				c0.4-0.4,0.9-0.7,1.3-0.7c0.5,0,0.7,0.3,0.7,0.8v3.1L51.1,562.9L51.1,562.9z M55.6,561.6c0-0.9-0.5-1.2-1.6-1.5
				c-0.7-0.2-1-0.4-1-0.7c0-0.3,0.3-0.5,0.8-0.5c0.4,0,1,0.1,1.4,0.4l0.1-0.8c-0.4-0.2-1-0.3-1.5-0.3c-1,0-1.6,0.5-1.6,1.2
				c0,0.8,0.4,1.2,1.5,1.4c0.8,0.2,1.1,0.4,1.1,0.8c0,0.4-0.4,0.6-1,0.6s-1.2-0.2-1.6-0.5l-0.1,0.8c0.4,0.2,1,0.4,1.7,0.4
				C54.9,563,55.6,562.4,55.6,561.6z M60.6,560.6c0-1.5-0.9-2.4-2.1-2.4c-1.2,0-2.1,0.9-2.1,2.4s0.9,2.4,2.1,2.4
				C59.7,563,60.6,562.1,60.6,560.6z M59.7,560.6c0,1-0.4,1.7-1.2,1.7s-1.2-0.7-1.2-1.7c0-1,0.4-1.7,1.2-1.7S59.7,559.6,59.7,560.6z
				 M64.1,559l-0.1-0.8c-0.7,0.1-1.2,0.5-1.6,1l-0.1-1h-0.7v4.6h0.9v-2.7C62.8,559.6,63.4,559.1,64.1,559z M68.5,560.5
				c0-1.2-0.6-2.3-1.9-2.3c-1.2,0-2,0.9-2,2.4c0,1.7,1,2.4,2.1,2.4c0.7,0,1.3-0.2,1.8-0.6l-0.1-0.8c-0.5,0.4-1,0.7-1.6,0.7
				c-0.8,0-1.3-0.5-1.3-1.6h3.1L68.5,560.5L68.5,560.5z M67.7,560h-2.2c0.1-0.8,0.6-1.2,1.1-1.2C67.2,558.8,67.6,559.3,67.7,560z
				 M73.4,562.9v-7l-0.9,0.1v2.4c-0.3-0.1-0.7-0.2-1.2-0.2c-1.1,0-2.1,0.8-2.1,2.5c0,1.5,0.8,2.3,1.8,2.3c0.7,0,1.1-0.4,1.5-0.7
				l0.1,0.7L73.4,562.9L73.4,562.9z M72.6,561.4c-0.4,0.5-0.7,0.8-1.3,0.8s-1-0.5-1-1.5c0-1.2,0.5-1.8,1.2-1.8
				c0.5,0,0.7,0.1,1.1,0.3C72.6,559.2,72.6,561.4,72.6,561.4z M80.8,560.4c0-1.5-0.8-2.3-1.8-2.3c-0.6,0-1,0.3-1.4,0.7v-2.9
				l-0.9,0.1v6.6c0.6,0.2,1.1,0.3,1.8,0.3C79.9,562.9,80.8,562.1,80.8,560.4z M80,560.5c0,1.2-0.5,1.8-1.4,1.8
				c-0.4,0-0.7-0.1-0.9-0.1v-2.3c0.4-0.4,0.7-0.7,1.2-0.7C79.5,558.9,80,559.5,80,560.5z M85.5,558.3h-0.9l-1.2,3.6l-1.2-3.7
				l-0.8,0.1l1.7,4.5l-0.1,0.4c-0.1,0.4-0.4,0.5-0.7,0.5c-0.1,0-0.4,0-0.4-0.1l0.1,0.7c0.1,0,0.1,0.1,0.3,0.1c0.7,0,1.2-0.3,1.6-1.4
				L85.5,558.3z M95.8,562.9l-0.5-6.7h-1.1l-2.1,5.5l-2.1-5.5H89l-0.5,6.7h0.8l0.4-5.3l2.1,5.3h0.7l2.1-5.3l0.4,5.3H95.8z
				 M100.7,560.5c0-1.2-0.6-2.3-1.9-2.3c-1.2,0-2,0.9-2,2.4c0,1.7,1,2.4,2.1,2.4c0.7,0,1.3-0.2,1.8-0.6l-0.1-0.8
				c-0.5,0.4-1,0.7-1.6,0.7c-0.8,0-1.3-0.5-1.3-1.6h3.1L100.7,560.5L100.7,560.5z M99.9,560h-2.2c0.1-0.8,0.6-1.2,1.1-1.2
				C99.4,558.8,99.7,559.3,99.9,560z M104,562.9l-0.1-0.7c-0.1,0-0.2,0-0.4,0c-0.4,0-0.7-0.2-0.7-0.6v-2.6h1.1l-0.1-0.7h-1v-1.7
				l-0.8,0.1v1.5h-0.7v0.7h0.7v2.8c0,1,0.5,1.2,1.3,1.2C103.6,562.9,103.8,562.9,104,562.9z M108.5,562.9l-0.1-0.8H106v-5.9h-0.9
				v6.7H108.5z M110.5,556.8c0-0.3-0.2-0.6-0.5-0.6c-0.3,0-0.5,0.2-0.5,0.6c0,0.3,0.2,0.5,0.5,0.5
				C110.2,557.4,110.5,557.1,110.5,556.8z M109.5,562.9h0.9v-4.6h-0.9V562.9z M113.9,556.8l-0.1-0.8c-0.1,0-0.2,0-0.4,0
				c-0.8,0-1.4,0.4-1.4,1.2v1h-0.7v0.7h0.7v3.9h0.8V559h1l-0.1-0.7h-0.9v-1c0-0.4,0.2-0.6,0.7-0.6
				C113.6,556.8,113.8,556.8,113.9,556.8z M118.3,560.5c0-1.2-0.6-2.3-1.9-2.3c-1.2,0-2,0.9-2,2.4c0,1.7,1,2.4,2.1,2.4
				c0.7,0,1.3-0.2,1.8-0.6l-0.1-0.8c-0.5,0.4-1,0.7-1.6,0.7c-0.8,0-1.3-0.5-1.3-1.6h3.1L118.3,560.5L118.3,560.5z M117.4,560h-2.2
				c0.1-0.8,0.6-1.2,1.1-1.2C117,558.8,117.3,559.3,117.4,560z M125,557.1v-0.8h-3.4v6.7h0.9v-3h2.1l-0.1-0.8h-2v-2.1H125z
				 M129.5,560.6c0-1.5-0.9-2.4-2.1-2.4c-1.2,0-2.1,0.9-2.1,2.4s0.9,2.4,2.1,2.4C128.7,563,129.5,562.1,129.5,560.6z M128.7,560.6
				c0,1-0.4,1.7-1.2,1.7c-0.8,0-1.2-0.7-1.2-1.7c0-1,0.4-1.7,1.2-1.7C128.3,558.9,128.7,559.6,128.7,560.6z M134.3,562.9v-4.6h-0.9
				v3.2c-0.4,0.4-0.9,0.7-1.3,0.7c-0.5,0-0.7-0.3-0.7-0.8v-3.1h-0.9v3.4c0,0.8,0.4,1.4,1.3,1.4c0.7,0,1.2-0.4,1.6-0.7l0.1,0.7
				L134.3,562.9L134.3,562.9z M139.3,562.9v-3.4c0-0.8-0.4-1.4-1.3-1.4c-0.7,0-1.2,0.4-1.6,0.7l-0.1-0.7h-0.7v4.6h0.9v-3.2
				c0.4-0.4,0.9-0.7,1.3-0.7c0.5,0,0.7,0.3,0.7,0.8v3.1L139.3,562.9L139.3,562.9z M144.5,562.9v-7l-0.9,0.1v2.4
				c-0.3-0.1-0.7-0.2-1.2-0.2c-1.1,0-2.1,0.8-2.1,2.5c0,1.5,0.8,2.3,1.8,2.3c0.7,0,1.1-0.4,1.5-0.7l0.1,0.7L144.5,562.9L144.5,562.9
				z M143.6,561.4c-0.4,0.5-0.7,0.8-1.3,0.8c-0.6,0-1-0.5-1-1.5c0-1.2,0.5-1.8,1.2-1.8c0.5,0,0.7,0.1,1.1,0.3V561.4z M149.2,562.9
				v-3.2c0-1-0.5-1.5-1.6-1.5c-0.7,0-1.2,0.1-1.8,0.4l0.1,0.7c0.5-0.2,1-0.4,1.5-0.4c0.5,0,0.9,0.2,0.9,0.8v0.2
				c-1.9,0.2-2.9,0.7-2.9,1.8c0,0.8,0.5,1.3,1.3,1.3c0.7,0,1.2-0.4,1.6-0.7l0.1,0.6L149.2,562.9L149.2,562.9z M148.3,561.6
				c-0.4,0.4-0.9,0.7-1.3,0.7c-0.4,0-0.7-0.2-0.7-0.6c0-0.4,0.4-1,2.1-1.1L148.3,561.6L148.3,561.6z M152.7,562.9l-0.1-0.7
				c-0.1,0-0.2,0-0.4,0c-0.4,0-0.7-0.2-0.7-0.6v-2.6h1.1l-0.1-0.7h-0.9v-1.7l-0.8,0.1v1.5h-0.7v0.7h0.7v2.8c0,1,0.5,1.2,1.3,1.2
				C152.4,562.9,152.5,562.9,152.7,562.9z M154.7,556.8c0-0.3-0.2-0.6-0.5-0.6c-0.3,0-0.5,0.2-0.5,0.6c0,0.3,0.2,0.5,0.5,0.5
				C154.5,557.4,154.7,557.1,154.7,556.8z M153.8,562.9h0.9v-4.6h-0.9V562.9z M160,560.6c0-1.5-0.9-2.4-2.1-2.4
				c-1.2,0-2.1,0.9-2.1,2.4s0.9,2.4,2.1,2.4C159.1,563,160,562.1,160,560.6z M159.1,560.6c0,1-0.4,1.7-1.2,1.7
				c-0.8,0-1.2-0.7-1.2-1.7c0-1,0.4-1.7,1.2-1.7C158.7,558.9,159.1,559.6,159.1,560.6z M164.7,562.9v-3.4c0-0.8-0.4-1.4-1.3-1.4
				c-0.7,0-1.2,0.4-1.6,0.7l-0.1-0.7h-0.7v4.6h0.9v-3.2c0.4-0.4,0.9-0.7,1.3-0.7c0.5,0,0.7,0.3,0.7,0.8v3.1L164.7,562.9L164.7,562.9
				z"/>
			<polyline id="Fill-2_2_" class="st1" points="0,475 0,500.9 49.9,500.9 49.9,519.7 31.8,519.7 31.8,545.7 164.1,545.7 
				164.1,523.1 175,523.1 175,497.2 123.5,497.2 123.5,475 0,475 			"/>
			<polyline id="Fill-3_2_" class="st2" points="11.3,494 11.3,482 20.1,482 20.1,485.2 14.9,485.2 14.9,486.3 20,486.3 20,489.5 
				14.9,489.5 14.9,494 11.3,494 			"/>
			<polygon id="Fill-4_2_" class="st2" points="23.1,494 26.7,494 26.7,482 23.1,482 			"/>
			<polyline id="Fill-5_2_" class="st2" points="37.6,494 33.2,487.9 33.2,494 29.7,494 29.7,482 33.3,482 37.4,487.7 37.4,482 
				41,482 41,494 37.6,494 			"/>
			<path id="Fill-6_2_" class="st2" d="M52,494l-0.4-1.4h-4.2l-0.4,1.4h-4l4.3-12.1h4.5l4.3,12.1H52z M49.4,485.5l-1.2,3.9h2.3
				L49.4,485.5z"/>
			<polyline id="Fill-7_2_" class="st2" points="65.4,494 61.1,487.9 61.1,494 57.5,494 57.5,482 61.1,482 65.2,487.7 65.2,482 
				68.8,482 68.8,494 65.4,494 			"/>
			<path id="Fill-8_2_" class="st2" d="M71.4,488.2c0-3.7,2.9-6.2,6.6-6.2c3.1,0,4.8,1.8,5.5,3.5l-3.1,1.5c-0.3-1-1.2-1.8-2.3-1.8
				c-1.8,0-2.9,1.3-2.9,3s1.2,3,2.9,3c1.1,0,2.1-0.8,2.3-1.8l3.1,1.5c-0.7,1.6-2.3,3.5-5.5,3.5C74.2,494.4,71.4,491.9,71.4,488.2"/>
			<polygon id="Fill-9_2_" class="st2" points="85.7,494 89.3,494 89.3,482 85.7,482 			"/>
			<path id="Fill-10_2_" class="st3" d="M99.9,494l-0.4-1.4h-4.2l-0.4,1.4h-4l4.3-12.1h4.5L104,494H99.9z M97.4,485.5l-1.2,3.9h2.3
				L97.4,485.5z"/>
			<polyline id="Fill-11_2_" class="st2" points="105.8,494 105.8,482 109.4,482 109.4,490.8 113.9,490.8 113.9,494 105.8,494 			
				"/>
			<polygon id="Fill-12_2_" class="st2" points="60,516.4 63.7,516.4 63.7,504.3 60,504.3 			"/>
			<polyline id="Fill-13_2_" class="st2" points="74.5,516.4 70.2,510.2 70.2,516.4 66.6,516.4 66.6,504.3 70.3,504.3 74.4,510 
				74.4,504.3 78,504.3 78,516.4 74.5,516.4 			"/>
			<path id="Fill-14_2_" class="st2" d="M80.2,510.1c0-3.7,2.9-6.2,6.6-6.2c3.1,0,4.8,1.8,5.5,3.5l-3.1,1.5c-0.3-1-1.2-1.8-2.3-1.8
				c-1.8,0-2.9,1.3-2.9,3c0,1.7,1.2,3,2.9,3c1.1,0,2.1-0.8,2.3-1.8l3.1,1.5c-0.7,1.6-2.3,3.5-5.5,3.5
				C83,516.4,80.2,513.9,80.2,510.1"/>
			<polyline id="Fill-15_2_" class="st3" points="94.5,516.4 94.5,504.3 98,504.3 98,513.1 102.5,513.1 102.5,516.4 94.5,516.4 			
				"/>
			<path id="Fill-16_2_" class="st2" d="M104.3,511.3v-7h3.7v6.9c0,1.2,0.8,2.1,2.3,2.1c1.5,0,2.3-0.9,2.3-2.1v-6.9h3.7v7
				c0,2.9-1.9,5.1-6,5.1C106.2,516.4,104.3,514.2,104.3,511.3"/>
			<path id="Fill-17_2_" class="st2" d="M118.3,514.5l1.9-2.7c1,0.9,2.3,1.5,4,1.5c0.7,0,1.4-0.1,1.4-0.7c0-1.2-6.8,0-6.8-4.8
				c0-2.1,1.8-4,5.1-4c2,0,3.8,0.6,5.2,1.7l-2,2.6c-1.1-0.8-2.4-1.2-3.6-1.2c-0.7,0-1,0.2-1,0.5c0,1.2,6.8,0.1,6.8,4.6
				c0,2.6-2,4.2-5.3,4.2C121.3,516.4,119.6,515.6,118.3,514.5"/>
			<polygon id="Fill-18_2_" class="st2" points="131.1,516.4 134.7,516.4 134.7,504.3 131.1,504.3 			"/>
			<path id="Fill-19_2_" class="st2" d="M136.9,510.1c0-3.7,2.9-6.2,6.6-6.2s6.6,2.5,6.6,6.2c0,3.7-2.9,6.2-6.6,6.2
				S136.9,513.9,136.9,510.1 M146.4,510.1c0-1.7-1.2-3-2.9-3c-1.8,0-2.9,1.3-2.9,3c0,1.7,1.2,3,2.9,3
				C145.3,513.1,146.4,511.8,146.4,510.1"/>
			<polyline id="Fill-20_2_" class="st2" points="160.2,516.4 155.9,510.2 155.9,516.4 152.3,516.4 152.3,504.3 156,504.3 
				160.1,510 160.1,504.3 163.7,504.3 163.7,516.4 160.2,516.4 			"/>
			<path id="Fill-21_2_" class="st4" d="M42.5,532.8c0-3.7,2.9-6.2,6.6-6.2c3.1,0,4.8,1.8,5.5,3.5l-3.1,1.5c-0.3-1-1.2-1.8-2.3-1.8
				c-1.8,0-2.9,1.3-2.9,3c0,1.7,1.2,3,2.9,3c1.1,0,2.1-0.8,2.3-1.8l3.1,1.5c-0.7,1.6-2.3,3.5-5.5,3.5
				C45.3,539.1,42.5,536.6,42.5,532.8"/>
			<polyline id="Fill-22_2_" class="st4" points="64.4,538.7 64.4,534.1 60,534.1 60,538.7 56.4,538.7 56.4,526.6 60,526.6 
				60,530.9 64.4,530.9 64.4,526.6 68.1,526.6 68.1,538.7 64.4,538.7 			"/>
			<path id="Fill-23_2_" class="st4" d="M78.7,538.7l-0.4-1.4H74l-0.4,1.4h-4l4.3-12.1h4.5l4.4,12.1H78.7z M76.2,530.2l-1.2,3.9h2.3
				L76.2,530.2z"/>
			<polyline id="Fill-24_2_" class="st4" points="84.6,538.7 84.6,526.6 88.2,526.6 88.2,535.5 92.6,535.5 92.6,538.7 84.6,538.7 
							"/>
			<polyline id="Fill-25_2_" class="st3" points="94.5,538.7 94.5,526.6 98,526.6 98,535.5 102.5,535.5 102.5,538.7 94.5,538.7 			
				"/>
			<polyline id="Fill-26_2_" class="st4" points="104.7,538.7 104.7,526.6 113.5,526.6 113.5,529.8 108.2,529.8 108.2,531 
				113.3,531 113.3,534.2 108.2,534.2 108.2,535.5 113.5,535.5 113.5,538.7 104.7,538.7 			"/>
			<polyline id="Fill-27_2_" class="st4" points="124.3,538.7 120,532.6 120,538.7 116.4,538.7 116.4,526.6 120.1,526.6 
				124.2,532.3 124.2,526.6 127.8,526.6 127.8,538.7 124.3,538.7 			"/>
			<path id="Fill-28_2_" class="st4" d="M130.3,532.8c0-3.9,3-6.2,6.6-6.2c2.9,0,4.5,1.6,5.3,3.1l-3.1,1.5c-0.4-0.7-1.1-1.5-2.2-1.5
				c-1.8,0-2.9,1.3-2.9,3c0,1.7,1.2,3,2.9,3c0.7,0,1.5-0.2,1.9-0.5v-0.4h-2.2v-3.1h5.9v4.9c-1.3,1.5-3.1,2.4-5.5,2.4
				C133.3,539.1,130.3,536.7,130.3,532.8"/>
			<polyline id="Fill-29_2_" class="st4" points="145,538.7 145,526.6 153.8,526.6 153.8,529.8 148.5,529.8 148.5,531 153.6,531 
				153.6,534.2 148.5,534.2 148.5,535.5 153.8,535.5 153.8,538.7 145,538.7 			"/>
		</g>
	</g>
</g>
<g id="Welcome_4_">
	<g id="Artboard_4_" transform="translate(-680.000000, -3433.000000)">
		<g id="Page-1" transform="translate(680.000000, 3433.000000)">
			<path id="Fill-1_3_" class="st6" d="M321,515.5c0,22.4-18.1,40.5-40.5,40.5S240,537.9,240,515.5c0-22.4,18.1-40.5,40.5-40.5
				S321,493.1,321,515.5"/>
			<path id="Fill-3_3_" class="st7" d="M299.6,493h-39.1c-1.3,0-2.4,1.1-2.4,2.4v39.1c0,1.3,1.1,2.4,2.4,2.4h21.1v-17h-5.7v-6.6h5.7
				v-4.9c0-5.7,3.5-8.8,8.5-8.8c2.4,0,4.5,0.2,5.1,0.3v5.9l-3.5,0c-2.8,0-3.3,1.3-3.3,3.2v4.2h6.6l-0.9,6.6h-5.7v17h11.2
				c1.3,0,2.4-1.1,2.4-2.4v-39.1C302,494.1,300.9,493,299.6,493"/>
		</g>
	</g>
</g>
<g id="Welcome_5_">
	<g id="Artboard_5_" transform="translate(-869.000000, -3433.000000)">
		<g id="Page-1_1_" transform="translate(869.000000, 3433.000000)">
			<path id="Fill-1_4_" class="st6" d="M456,515.5c0,22.4-18.1,40.5-40.5,40.5c-22.4,0-40.5-18.1-40.5-40.5
				c0-22.4,18.1-40.5,40.5-40.5C437.9,475,456,493.1,456,515.5"/>
			<path id="Fill-3_4_" class="st7" d="M438,501.4c-1.7,0.7-3.4,1.2-5.3,1.5c1.9-1.2,3.4-3,4.1-5.2c-1.8,1.1-3.8,1.8-5.9,2.3
				c-1.7-1.8-4.1-2.9-6.7-2.9c-5.1,0-9.2,4.2-9.2,9.3c0,0.7,0.1,1.4,0.2,2.1c-7.7-0.4-14.5-4.1-19-9.8c-0.8,1.4-1.3,3-1.3,4.7
				c0,3.2,1.6,6.1,4.1,7.8c-1.5,0-2.9-0.5-4.2-1.2c0,0,0,0.1,0,0.1c0,4.5,3.2,8.3,7.4,9.2c-0.8,0.2-1.6,0.3-2.4,0.3
				c-0.6,0-1.2-0.1-1.7-0.2c1.2,3.7,4.6,6.4,8.6,6.5c-3.2,2.5-7.1,4-11.5,4c-0.7,0-1.5,0-2.2-0.1c4.1,2.7,8.9,4.2,14.2,4.2
				c17,0,26.3-14.2,26.3-26.6c0-0.4,0-0.8,0-1.2C435.2,504.9,436.8,503.3,438,501.4"/>
		</g>
	</g>
</g>
<g id="Welcome_6_">
	<g id="Artboard_6_" transform="translate(-490.000000, -3433.000000)">
		<g id="Page-1_2_" transform="translate(490.000000, 3433.000000)">
			<path id="Fill-1_5_" class="st6" d="M280.5,666c-22.4,0-40.5-18.1-40.5-40.5c0-22.4,18.1-40.5,40.5-40.5
				c22.4,0,40.5,18.1,40.5,40.5C321,647.9,302.9,666,280.5,666z"/>
			<path id="Fill-3_5_" class="st7" d="M297.8,648h-34.6c-2.9,0-5.2-2.3-5.2-5.2v-34.6c0-2.9,2.3-5.2,5.2-5.2h34.6
				c2.9,0,5.2,2.3,5.2,5.2v34.6C303,645.7,300.7,648,297.8,648z M280.5,616.8c-4.8,0-8.7,3.9-8.7,8.7c0,4.8,3.9,8.7,8.7,8.7
				c4.8,0,8.7-3.9,8.7-8.7C289.2,620.7,285.3,616.8,280.5,616.8z M297.8,609.9c0-1-0.8-1.7-1.7-1.7h-5.2c-1,0-1.7,0.8-1.7,1.7v5.2
				c0,1,0.8,1.7,1.7,1.7h5.2c1,0,1.7-0.8,1.7-1.7V609.9z M297.8,622h-3.9c0.3,1.1,0.5,2.3,0.5,3.5c0,7.6-6.2,13.8-13.8,13.8
				c-7.6,0-13.8-6.2-13.8-13.8c0-1.2,0.2-2.4,0.5-3.5h-3.9v19c0,1,0.8,1.7,1.7,1.7h31.2c1,0,1.7-0.8,1.7-1.7V622z"/>
		</g>
	</g>
</g>
<g id="Welcome_9_">
	<g id="Artboard_9_" transform="translate(-680.000000, -3433.000000)">
		<g id="Page-1_5_" transform="translate(680.000000, 3433.000000)">
			<path id="Fill-1_8_" class="st6" d="M50,645c0,13.8-11.2,25-25,25S0,658.8,0,645c0-13.8,11.2-25,25-25S50,631.2,50,645"/>
			<path id="Fill-3_8_" class="st7" d="M36.8,631.1H12.6c-0.8,0-1.5,0.7-1.5,1.5v24.2c0,0.8,0.7,1.5,1.5,1.5h13v-10.5h-3.5v-4.1h3.5
				v-3c0-3.5,2.1-5.4,5.3-5.4c1.5,0,2.8,0.1,3.2,0.2v3.7l-2.2,0c-1.7,0-2,0.8-2,2v2.6h4.1l-0.5,4.1h-3.5v10.5h6.9
				c0.8,0,1.5-0.7,1.5-1.5v-24.2C38.3,631.8,37.6,631.1,36.8,631.1"/>
		</g>
	</g>
</g>
<g id="Welcome_8_">
	<g id="Artboard_8_" transform="translate(-869.000000, -3433.000000)">
		<g id="Page-1_4_" transform="translate(869.000000, 3433.000000)">
			<path id="Fill-1_7_" class="st6" d="M120,645c0,13.8-11.2,25-25,25c-13.8,0-25-11.2-25-25c0-13.8,11.2-25,25-25
				C108.8,620,120,631.2,120,645"/>
			<path id="Fill-3_7_" class="st7" d="M108.9,636.3c-1,0.5-2.1,0.8-3.3,0.9c1.2-0.7,2.1-1.8,2.5-3.2c-1.1,0.7-2.3,1.1-3.6,1.4
				c-1-1.1-2.5-1.8-4.2-1.8c-3.1,0-5.7,2.6-5.7,5.8c0,0.5,0.1,0.9,0.1,1.3c-4.7-0.2-8.9-2.5-11.7-6c-0.5,0.9-0.8,1.8-0.8,2.9
				c0,2,1,3.8,2.5,4.8c-0.9,0-1.8-0.3-2.6-0.7c0,0,0,0,0,0.1c0,2.8,2,5.1,4.6,5.7c-0.5,0.1-1,0.2-1.5,0.2c-0.4,0-0.7,0-1.1-0.1
				c0.7,2.3,2.8,4,5.3,4c-2,1.5-4.4,2.5-7.1,2.5c-0.5,0-0.9,0-1.4-0.1c2.5,1.6,5.5,2.6,8.7,2.6c10.5,0,16.2-8.8,16.2-16.4
				c0-0.3,0-0.5,0-0.7C107.2,638.5,108.1,637.4,108.9,636.3"/>
		</g>
	</g>
</g>
<g id="Welcome_7_">
	<g id="Artboard_7_" transform="translate(-490.000000, -3433.000000)">
		<g id="Page-1_3_" transform="translate(490.000000, 3433.000000)">
			<path id="Fill-1_6_" class="st6" d="M165,670c-13.8,0-25-11.2-25-25c0-13.8,11.2-25,25-25c13.8,0,25,11.2,25,25
				C190,658.8,178.8,670,165,670z"/>
			<path id="Fill-3_6_" class="st7" d="M175.7,658.9h-21.4c-1.8,0-3.2-1.4-3.2-3.2v-21.4c0-1.8,1.4-3.2,3.2-3.2h21.4
				c1.8,0,3.2,1.4,3.2,3.2v21.4C178.9,657.5,177.5,658.9,175.7,658.9z M165,639.7c-3,0-5.3,2.4-5.3,5.3c0,3,2.4,5.3,5.3,5.3
				c3,0,5.3-2.4,5.3-5.3C170.3,642,168,639.7,165,639.7z M175.7,635.4c0-0.6-0.5-1.1-1.1-1.1h-3.2c-0.6,0-1.1,0.5-1.1,1.1v3.2
				c0,0.6,0.5,1.1,1.1,1.1h3.2c0.6,0,1.1-0.5,1.1-1.1V635.4z M175.7,642.9h-2.4c0.2,0.7,0.3,1.4,0.3,2.1c0,4.7-3.8,8.5-8.5,8.5
				c-4.7,0-8.5-3.8-8.5-8.5c0-0.7,0.1-1.5,0.3-2.1h-2.4v11.8c0,0.6,0.5,1.1,1.1,1.1h19.2c0.6,0,1.1-0.5,1.1-1.1V642.9z"/>
		</g>
	</g>
</g>
<g id="Welcome_10_">
	<g id="Artboard_10_" transform="translate(-664.000000, -1318.000000)">
		<path id="Combined-Shape-Copy_1_" class="st5" d="M1001.4,1768.4l34.8-34.5l0.9-0.9l1.9,1.9l-0.9,0.9l-34.8,34.5l0.1,0.1l-1.9,1.9
			l-0.9-0.9l-35.6-35.3l-0.9-0.9l1.9-1.9l0.9,0.9L1001.4,1768.4z"/>
	</g>
</g>
<g id="Welcome_11_">
	<g id="Artboard_11_" transform="translate(-664.000000, -1318.000000)">
		<path id="Combined-Shape-Copy_2_" class="st8" d="M1116.4,1768.4l34.8-34.5l0.9-0.9l1.9,1.9l-0.9,0.9l-34.8,34.5l0.1,0.1l-1.9,1.9
			l-0.9-0.9l-35.6-35.3l-0.9-0.9l1.9-1.9l0.9,0.9L1116.4,1768.4z"/>
	</g>
</g>
<g id="Welcome_12_">
	<g id="Artboard_12_" transform="translate(-664.000000, -1318.000000)">
		<path id="Combined-Shape-Copy_3_" class="st8" d="M1218.9,1761.3l27.8-27.6l0.7-0.7l1.5,1.5l-0.7,0.7l-27.8,27.6l0.1,0.1l-1.5,1.5
			l-0.7-0.7l-28.5-28.2l-0.7-0.7l1.5-1.5l0.7,0.7L1218.9,1761.3z"/>
	</g>
</g>
<g id="Welcome_13_">
	<g id="Artboard_13_" transform="translate(-664.000000, -1318.000000)">
		<path id="Combined-Shape-Copy_4_" class="st8" d="M1126.5,1634.5l16.2-16.1l0.4-0.4l0.9,0.9l-0.4,0.4l-16.2,16.1l0,0l-0.9,0.9
			l-0.4-0.4l-16.6-16.5l-0.4-0.4l0.9-0.9l0.4,0.4L1126.5,1634.5z"/>
	</g>
</g>
</svg>
